<?xml version="1.0" encoding="UTF-8" standalone="no"?>
<!-- Created with Inkscape (http://www.inkscape.org/) -->

<svg
   version="1.1"
   id="svg1940"
   xml:space="preserve"
   width="133.62"
   height="165.46399"
   viewBox="0 0 133.61999 165.46398"
   sodipodi:docname="image.svg"
   inkscape:version="1.1.1 (3bf5ae0d25, 2021-09-20, custom)"
   xmlns:inkscape="http://www.inkscape.org/namespaces/inkscape"
   xmlns:sodipodi="http://sodipodi.sourceforge.net/DTD/sodipodi-0.dtd"
   xmlns="http://www.w3.org/2000/svg"
   xmlns:svg="http://www.w3.org/2000/svg"><defs
     id="defs1944"><clipPath
       clipPathUnits="userSpaceOnUse"
       id="clipPath1984"><path
         d="m 49.843,704.141 h 240.72 V 399.701 H 49.843 Z"
         id="path1982" /></clipPath><clipPath
       clipPathUnits="userSpaceOnUse"
       id="clipPath2118"><path
         d="m 304.723,704.141 h 240.72 v -304.44 h -240.72 z"
         id="path2116" /></clipPath></defs><sodipodi:namedview
     id="namedview1942"
     pagecolor="#ffffff"
     bordercolor="#666666"
     borderopacity="1.0"
     inkscape:pageshadow="2"
     inkscape:pageopacity="0.0"
     inkscape:pagecheckerboard="0"
     showgrid="false"
     inkscape:zoom="2.1591109"
     inkscape:cx="173.91418"
     inkscape:cy="108.37794"
     inkscape:window-width="1920"
     inkscape:window-height="1016"
     inkscape:window-x="0"
     inkscape:window-y="27"
     inkscape:window-maximized="1"
     inkscape:current-layer="g1946" /><g
     id="g1946"
     inkscape:groupmode="layer"
     inkscape:label="datasheet"
     transform="matrix(1.3333333,0,0,-1.3333333,-160.12666,835.33865)"><path
       d="m 120.72,624.085 c 0.346,0 0.626,0.28 0.626,0.626 0,0.346 -0.28,0.626 -0.626,0.626 -0.345,0 -0.625,-0.28 -0.625,-0.626 0,-0.346 0.28,-0.626 0.625,-0.626"
       style="fill:#ffffff;fill-opacity:1;fill-rule:nonzero;stroke:none"
       id="path1992" /><path
       d="m 120.72,618.775 c 0.346,0 0.626,0.28 0.626,0.626 0,0.346 -0.28,0.626 -0.626,0.626 -0.345,0 -0.625,-0.28 -0.625,-0.626 0,-0.346 0.28,-0.626 0.625,-0.626"
       style="fill:#ffffff;fill-opacity:1;fill-rule:nonzero;stroke:none"
       id="path1994" /><path
       d="m 120.72,613.465 c 0.346,0 0.626,0.28 0.626,0.626 0,0.346 -0.28,0.626 -0.626,0.626 -0.345,0 -0.625,-0.28 -0.625,-0.626 0,-0.346 0.28,-0.626 0.625,-0.626"
       style="fill:#ffffff;fill-opacity:1;fill-rule:nonzero;stroke:none"
       id="path1996" /><path
       d="m 120.72,608.155 c 0.346,0 0.626,0.28 0.626,0.626 0,0.346 -0.28,0.626 -0.626,0.626 -0.345,0 -0.625,-0.28 -0.625,-0.626 0,-0.346 0.28,-0.626 0.625,-0.626"
       style="fill:#ffffff;fill-opacity:1;fill-rule:nonzero;stroke:none"
       id="path1998" /><path
       d="m 219.684,624.38 c 0.345,0 0.626,0.28 0.626,0.626 0,0.346 -0.281,0.626 -0.626,0.626 -0.346,0 -0.626,-0.28 -0.626,-0.626 0,-0.346 0.28,-0.626 0.626,-0.626"
       style="fill:#ffffff;fill-opacity:1;fill-rule:nonzero;stroke:none"
       id="path2000" /><path
       d="m 219.684,619.07 c 0.345,0 0.626,0.28 0.626,0.626 0,0.346 -0.281,0.626 -0.626,0.626 -0.346,0 -0.626,-0.28 -0.626,-0.626 0,-0.346 0.28,-0.626 0.626,-0.626"
       style="fill:#ffffff;fill-opacity:1;fill-rule:nonzero;stroke:none"
       id="path2002" /><path
       d="m 219.684,613.76 c 0.345,0 0.626,0.28 0.626,0.626 0,0.346 -0.281,0.626 -0.626,0.626 -0.346,0 -0.626,-0.28 -0.626,-0.626 0,-0.346 0.28,-0.626 0.626,-0.626"
       style="fill:#ffffff;fill-opacity:1;fill-rule:nonzero;stroke:none"
       id="path2004" /><path
       d="m 219.684,608.45 c 0.345,0 0.626,0.28 0.626,0.626 0,0.346 -0.281,0.626 -0.626,0.626 -0.346,0 -0.626,-0.28 -0.626,-0.626 0,-0.346 0.28,-0.626 0.626,-0.626"
       style="fill:#ffffff;fill-opacity:1;fill-rule:nonzero;stroke:none"
       id="path2006" /><path
       d="m 169.531,526.162 c 0,-1.155 0.936,-2.09 2.091,-2.09 1.154,0 2.09,0.935 2.09,2.09 0,1.155 -0.936,2.09 -2.09,2.09 -1.155,0 -2.091,-0.935 -2.091,-2.09 z m 0,76.807 c 0,-1.155 0.936,-2.091 2.091,-2.091 1.154,0 2.09,0.936 2.09,2.091 0,1.154 -0.936,2.09 -2.09,2.09 -1.155,0 -2.091,-0.936 -2.091,-2.09 z"
       style="fill:none;stroke:#000000;stroke-width:1.003;stroke-linecap:butt;stroke-linejoin:miter;stroke-miterlimit:4;stroke-dasharray:none;stroke-opacity:1"
       id="path2008" /><path
       d="m 171.72,502.406 v 21.617 m 0,80.872 v 19.445"
       style="fill:none;stroke:#000000;stroke-width:0.502;stroke-linecap:butt;stroke-linejoin:miter;stroke-miterlimit:4;stroke-dasharray:none;stroke-opacity:1"
       id="path2010" /><path
       d="m 154.949,599.668 h 34.005 v -70.219 h -34.005 z"
       style="fill:none;stroke:#000000;stroke-width:1.003;stroke-linecap:butt;stroke-linejoin:miter;stroke-miterlimit:10;stroke-dasharray:none;stroke-opacity:1"
       id="path2012" /><path
       d="M 154.91,582.913 H 121.359"
       style="fill:none;stroke:#000000;stroke-width:0.502;stroke-linecap:butt;stroke-linejoin:miter;stroke-miterlimit:10;stroke-dasharray:none;stroke-opacity:1"
       id="path2014" /><text
       transform="matrix(1,0,0,-1,166.618,532.272)"
       style="font-variant:normal;font-weight:normal;font-size:7.08px;font-family:Helvetica;-inkscape-font-specification:Helvetica;writing-mode:lr-tb;fill:#000000;fill-opacity:1;fill-rule:nonzero;stroke:none"
       id="text2022"><tspan
         x="0 5.1117601"
         y="0"
         sodipodi:role="line"
         id="tspan2016">RD</tspan><tspan
         x="1.2036 5.52948"
         y="-21.26832"
         sodipodi:role="line"
         id="tspan2018">FF</tspan><tspan
         x="0.19115999 4.9135199"
         y="-59.033039"
         sodipodi:role="line"
         id="tspan2020">SD</tspan></text><path
       d="m 171.72,606.568 v 19.936"
       style="fill:none;stroke:#000000;stroke-width:0.502;stroke-linecap:butt;stroke-linejoin:miter;stroke-miterlimit:4;stroke-dasharray:none;stroke-opacity:1"
       id="path2024" /><text
       transform="matrix(1,0,0,-1,164.871,620.506)"
       style="font-variant:normal;font-weight:normal;font-size:7.08px;font-family:Helvetica;-inkscape-font-specification:Helvetica;writing-mode:lr-tb;fill:#000000;fill-opacity:1;fill-rule:nonzero;stroke:none"
       id="text2058"><tspan
         x="0 8.8004398 12.73692"
         y="0"
         sodipodi:role="line"
         id="tspan2026">410</tspan><tspan
         x="16.05744"
         y="40.341839"
         id="tspan2028">Q</tspan><tspan
         x="27.80316 31.739639"
         y="35.060162"
         sodipodi:role="line"
         id="tspan2030">1Q</tspan><tspan
         x="27.80316 31.739639"
         y="45.113762"
         sodipodi:role="line"
         id="tspan2032">2Q</tspan><tspan
         x="27.80316 31.739639"
         y="71.812439"
         sodipodi:role="line"
         id="tspan2034">1Q</tspan><tspan
         x="27.80316 31.739639"
         y="83.119202"
         sodipodi:role="line"
         id="tspan2036">2Q</tspan><tspan
         x="48.455521"
         y="35.060162"
         id="tspan2038">5</tspan><tspan
         x="48.455521"
         y="45.113762"
         id="tspan2040">9</tspan><tspan
         x="-38.522282"
         y="35.477879"
         id="tspan2042">2</tspan><tspan
         x="-42.458759 -38.522282"
         y="44.696041"
         sodipodi:role="line"
         id="tspan2044">12</tspan><tspan
         x="-38.522282"
         y="53.425678"
         id="tspan2046">3</tspan><tspan
         x="-42.458759 -38.522282"
         y="63.061562"
         sodipodi:role="line"
         id="tspan2048">11</tspan><tspan
         x="48.455521"
         y="71.812439"
         id="tspan2050">6</tspan><tspan
         x="48.455521"
         y="82.28376"
         id="tspan2052">8</tspan><tspan
         x="16.05744"
         y="77.221558"
         id="tspan2054">Q</tspan><tspan
         x="-9.8341198 -5.8976402 -1.17528"
         y="12.68736"
         sodipodi:role="line"
         id="tspan2056">1SD</tspan></text><path
       d="m 159.021,614.476 h 4.473 m 17.873,-64.509 h 4.96 m 10.454,5.334 h 4.96 m -4.96,-11.407 h 4.96"
       style="fill:none;stroke:#000000;stroke-width:0.354;stroke-linecap:butt;stroke-linejoin:miter;stroke-miterlimit:10;stroke-dasharray:none;stroke-opacity:1"
       id="path2060" /><text
       transform="matrix(1,0,0,-1,157.217,562.404)"
       style="font-variant:normal;font-weight:normal;font-size:7.08px;font-family:Helvetica;-inkscape-font-specification:Helvetica;writing-mode:lr-tb;fill:#000000;fill-opacity:1;fill-rule:nonzero;stroke:none"
       id="text2074"><tspan
         x="0 5.1117601"
         y="0"
         sodipodi:role="line"
         id="tspan2062">CP</tspan><tspan
         x="-18.754919 -14.81844 -9.7066803"
         y="5.1259198"
         sodipodi:role="line"
         id="tspan2064">2CP</tspan><tspan
         x="-18.754919 -14.81844 -9.7066803"
         y="-4.2409201"
         sodipodi:role="line"
         id="tspan2066">1CP</tspan><tspan
         x="-14.03256 -10.09608"
         y="-13.02012"
         sodipodi:role="line"
         id="tspan2068">2D</tspan><tspan
         x="-14.03256 -10.09608"
         y="-22.43652"
         sodipodi:role="line"
         id="tspan2070">1D</tspan><tspan
         x="0"
         y="-17.735399"
         id="tspan2072">D</tspan></text><path
       d="m 218.142,582.913 h -29.065 m 29.065,-37.089 h -29.065 m -34.167,19.055 h -33.551"
       style="fill:none;stroke:#000000;stroke-width:0.502;stroke-linecap:butt;stroke-linejoin:miter;stroke-miterlimit:10;stroke-dasharray:none;stroke-opacity:1"
       id="path2076" /><text
       transform="matrix(1,0,0,-1,174.088,607.82)"
       style="font-variant:normal;font-weight:normal;font-size:7.08px;font-family:Helvetica;-inkscape-font-specification:Helvetica;writing-mode:lr-tb;fill:#000000;fill-opacity:1;fill-rule:nonzero;stroke:none"
       id="text2080"><tspan
         x="0 3.93648 8.6588402"
         y="0"
         sodipodi:role="line"
         id="tspan2078">2SD</tspan></text><path
       d="m 178.171,614.476 h 4.474"
       style="fill:none;stroke:#000000;stroke-width:0.354;stroke-linecap:butt;stroke-linejoin:miter;stroke-miterlimit:10;stroke-dasharray:none;stroke-opacity:1"
       id="path2082" /><text
       transform="matrix(1,0,0,-1,165.29,503.857)"
       style="font-variant:normal;font-weight:normal;font-size:7.08px;font-family:Helvetica;-inkscape-font-specification:Helvetica;writing-mode:lr-tb;fill:#000000;fill-opacity:1;fill-rule:nonzero;stroke:none"
       id="text2088"><tspan
         x="0 8.38272 12.3192"
         y="0"
         sodipodi:role="line"
         id="tspan2084">113</tspan><tspan
         x="-10.64124 -6.7047601 -1.5930001"
         y="-13.99008"
         sodipodi:role="line"
         id="tspan2086">1RD</tspan></text><path
       d="m 159.021,524.501 h 4.473"
       style="fill:none;stroke:#000000;stroke-width:0.354;stroke-linecap:butt;stroke-linejoin:miter;stroke-miterlimit:10;stroke-dasharray:none;stroke-opacity:1"
       id="path2090" /><text
       transform="matrix(1,0,0,-1,174.088,517.845)"
       style="font-variant:normal;font-weight:normal;font-size:7.08px;font-family:Helvetica;-inkscape-font-specification:Helvetica;writing-mode:lr-tb;fill:#000000;fill-opacity:1;fill-rule:nonzero;stroke:none"
       id="text2094"><tspan
         x="0 3.93648 9.0482397"
         y="0"
         sodipodi:role="line"
         id="tspan2092">2RD</tspan></text><path
       d="m 178.171,524.501 h 4.474"
       style="fill:none;stroke:#000000;stroke-width:0.354;stroke-linecap:butt;stroke-linejoin:miter;stroke-miterlimit:10;stroke-dasharray:none;stroke-opacity:1"
       id="path2096" /></g></svg>
