<?xml version="1.0" encoding="UTF-8" standalone="no"?>
<!-- Created with Inkscape (http://www.inkscape.org/) -->

<svg
   version="1.1"
   id="svg838"
   xml:space="preserve"
   width="147.83984"
   height="167.67999"
   viewBox="0 0 147.83985 167.67998"
   xmlns="http://www.w3.org/2000/svg"
   xmlns:svg="http://www.w3.org/2000/svg"><defs
     id="defs842"><clipPath
       clipPathUnits="userSpaceOnUse"
       id="clipPath998"><path
         d="m 49.843,449.261 h 240.72 V 144.821 H 49.843 Z"
         id="path996" /></clipPath><clipPath
       clipPathUnits="userSpaceOnUse"
       id="clipPath1170"><path
         d="m 304.723,449.261 h 240.72 v -304.44 h -240.72 z"
         id="path1168" /></clipPath></defs><g
     id="g844"
     transform="matrix(1.3333333,0,0,-1.3333333,-150.40469,516.56599)"><g
       id="g1812"><path
         d="m 120.681,383.495 c 0.346,0 0.626,0.281 0.626,0.626 0,0.346 -0.28,0.626 -0.626,0.626 -0.345,0 -0.626,-0.28 -0.626,-0.626 0,-0.345 0.281,-0.626 0.626,-0.626"
         style="fill:#ffffff;fill-opacity:1;fill-rule:nonzero;stroke:none"
         id="path1006" /><path
         d="m 120.681,378.185 c 0.346,0 0.626,0.281 0.626,0.626 0,0.346 -0.28,0.626 -0.626,0.626 -0.345,0 -0.626,-0.28 -0.626,-0.626 0,-0.345 0.281,-0.626 0.626,-0.626"
         style="fill:#ffffff;fill-opacity:1;fill-rule:nonzero;stroke:none"
         id="path1008" /><path
         d="m 120.681,372.875 c 0.346,0 0.626,0.281 0.626,0.626 0,0.346 -0.28,0.626 -0.626,0.626 -0.345,0 -0.626,-0.28 -0.626,-0.626 0,-0.345 0.281,-0.626 0.626,-0.626"
         style="fill:#ffffff;fill-opacity:1;fill-rule:nonzero;stroke:none"
         id="path1010" /><path
         d="m 120.681,367.565 c 0.346,0 0.626,0.281 0.626,0.626 0,0.346 -0.28,0.626 -0.626,0.626 -0.345,0 -0.626,-0.28 -0.626,-0.626 0,-0.345 0.281,-0.626 0.626,-0.626"
         style="fill:#ffffff;fill-opacity:1;fill-rule:nonzero;stroke:none"
         id="path1012" /><path
         d="m 219.644,383.79 c 0.346,0 0.626,0.281 0.626,0.626 0,0.346 -0.28,0.626 -0.626,0.626 -0.345,0 -0.626,-0.28 -0.626,-0.626 0,-0.345 0.281,-0.626 0.626,-0.626"
         style="fill:#ffffff;fill-opacity:1;fill-rule:nonzero;stroke:none"
         id="path1014" /><path
         d="m 219.644,378.48 c 0.346,0 0.626,0.281 0.626,0.626 0,0.346 -0.28,0.626 -0.626,0.626 -0.345,0 -0.626,-0.28 -0.626,-0.626 0,-0.345 0.281,-0.626 0.626,-0.626"
         style="fill:#ffffff;fill-opacity:1;fill-rule:nonzero;stroke:none"
         id="path1016" /><path
         d="m 219.644,373.17 c 0.346,0 0.626,0.281 0.626,0.626 0,0.346 -0.28,0.626 -0.626,0.626 -0.345,0 -0.626,-0.28 -0.626,-0.626 0,-0.345 0.281,-0.626 0.626,-0.626"
         style="fill:#ffffff;fill-opacity:1;fill-rule:nonzero;stroke:none"
         id="path1018" /><path
         d="m 219.644,367.86 c 0.346,0 0.626,0.281 0.626,0.626 0,0.346 -0.28,0.626 -0.626,0.626 -0.345,0 -0.626,-0.28 -0.626,-0.626 0,-0.345 0.281,-0.626 0.626,-0.626"
         style="fill:#ffffff;fill-opacity:1;fill-rule:nonzero;stroke:none"
         id="path1020" /><path
         d="m 143.603,386.761 h 50.173 V 262.328 h -50.173 z"
         style="fill:none;stroke:#000000;stroke-width:1.327;stroke-linecap:butt;stroke-linejoin:miter;stroke-miterlimit:10;stroke-dasharray:none;stroke-opacity:1"
         id="path1026" /><text
         transform="scale(1,-1)"
         style="font-variant:normal;font-weight:bold;font-size:8.26px;font-family:Helvetica;-inkscape-font-specification:Helvetica-Bold;writing-mode:lr-tb;fill:#000000;fill-opacity:1;fill-rule:nonzero;stroke:none"
         id="text1030"
         x="164.11501"
         y="-320.73801"><tspan
           x="164.11501 168.70757"
           y="-320.73801"
           id="tspan1028">74</tspan></text><text
         transform="scale(1,-1)"
         style="font-variant:normal;font-weight:normal;font-size:7.08px;font-family:Helvetica;-inkscape-font-specification:Helvetica;writing-mode:lr-tb;fill:#000000;fill-opacity:1;fill-rule:nonzero;stroke:none"
         id="text1034"
         x="135.446"
         y="-372.73499"><tspan
           x="135.446"
           y="-372.73499"
           id="tspan1032">1</tspan></text><path
         d="m 131.244,370.232 h 12.34 v 10.006 h -12.34 z"
         style="fill:none;stroke:#000000;stroke-width:0.59;stroke-linecap:butt;stroke-linejoin:miter;stroke-miterlimit:10;stroke-dasharray:none;stroke-opacity:1"
         id="path1036" /><text
         transform="scale(1,-1)"
         style="font-variant:normal;font-weight:normal;font-size:7.08px;font-family:Helvetica;-inkscape-font-specification:Helvetica;writing-mode:lr-tb;fill:#000000;fill-opacity:1;fill-rule:nonzero;stroke:none"
         id="text1040"
         x="135.446"
         y="-355.815"><tspan
           x="135.446"
           y="-355.815"
           id="tspan1038">2</tspan></text><path
         d="m 131.244,353.312 h 12.34 v 10.006 h -12.34 z"
         style="fill:none;stroke:#000000;stroke-width:0.59;stroke-linecap:butt;stroke-linejoin:miter;stroke-miterlimit:10;stroke-dasharray:none;stroke-opacity:1"
         id="path1042" /><text
         transform="scale(1,-1)"
         style="font-variant:normal;font-weight:normal;font-size:7.08px;font-family:Helvetica;-inkscape-font-specification:Helvetica;writing-mode:lr-tb;fill:#000000;fill-opacity:1;fill-rule:nonzero;stroke:none"
         id="text1046"
         x="135.446"
         y="-338.92401"><tspan
           x="135.446"
           y="-338.92401"
           id="tspan1044">3</tspan></text><path
         d="m 131.244,336.42 h 12.34 v 10.006 h -12.34 z"
         style="fill:none;stroke:#000000;stroke-width:0.59;stroke-linecap:butt;stroke-linejoin:miter;stroke-miterlimit:10;stroke-dasharray:none;stroke-opacity:1"
         id="path1048" /><text
         transform="scale(1,-1)"
         style="font-variant:normal;font-weight:normal;font-size:7.08px;font-family:Helvetica;-inkscape-font-specification:Helvetica;writing-mode:lr-tb;fill:#000000;fill-opacity:1;fill-rule:nonzero;stroke:none"
         id="text1052"
         x="135.446"
         y="-322.03201"><tspan
           x="135.446"
           y="-322.03201"
           id="tspan1050">4</tspan></text><path
         d="m 131.244,319.528 h 12.34 v 10.006 h -12.34 z"
         style="fill:none;stroke:#000000;stroke-width:0.59;stroke-linecap:butt;stroke-linejoin:miter;stroke-miterlimit:10;stroke-dasharray:none;stroke-opacity:1"
         id="path1054" /><text
         transform="scale(1,-1)"
         style="font-variant:normal;font-weight:normal;font-size:7.08px;font-family:Helvetica;-inkscape-font-specification:Helvetica;writing-mode:lr-tb;fill:#000000;fill-opacity:1;fill-rule:nonzero;stroke:none"
         id="text1058"
         x="135.446"
         y="-305.14001"><tspan
           x="135.446"
           y="-305.14001"
           id="tspan1056">5</tspan></text><path
         d="m 131.244,302.637 h 12.34 v 10.006 h -12.34 z"
         style="fill:none;stroke:#000000;stroke-width:0.59;stroke-linecap:butt;stroke-linejoin:miter;stroke-miterlimit:10;stroke-dasharray:none;stroke-opacity:1"
         id="path1060" /><text
         transform="scale(1,-1)"
         style="font-variant:normal;font-weight:normal;font-size:7.08px;font-family:Helvetica;-inkscape-font-specification:Helvetica;writing-mode:lr-tb;fill:#000000;fill-opacity:1;fill-rule:nonzero;stroke:none"
         id="text1064"
         x="135.446"
         y="-288.24899"><tspan
           x="135.446"
           y="-288.24899"
           id="tspan1062">6</tspan></text><path
         d="m 131.244,285.745 h 12.34 v 10.006 h -12.34 z"
         style="fill:none;stroke:#000000;stroke-width:0.59;stroke-linecap:butt;stroke-linejoin:miter;stroke-miterlimit:10;stroke-dasharray:none;stroke-opacity:1"
         id="path1066" /><text
         transform="scale(1,-1)"
         style="font-variant:normal;font-weight:normal;font-size:7.08px;font-family:Helvetica;-inkscape-font-specification:Helvetica;writing-mode:lr-tb;fill:#000000;fill-opacity:1;fill-rule:nonzero;stroke:none"
         id="text1070"
         x="135.446"
         y="-271.35699"><tspan
           x="135.446"
           y="-271.35699"
           id="tspan1068">7</tspan></text><path
         d="m 131.244,268.853 h 12.34 v 10.006 h -12.34 z"
         style="fill:none;stroke:#000000;stroke-width:0.59;stroke-linecap:butt;stroke-linejoin:miter;stroke-miterlimit:10;stroke-dasharray:none;stroke-opacity:1"
         id="path1072" /><text
         transform="scale(1,-1)"
         style="font-variant:normal;font-weight:normal;font-size:7.08px;font-family:Helvetica;-inkscape-font-specification:Helvetica;writing-mode:lr-tb;fill:#000000;fill-opacity:1;fill-rule:nonzero;stroke:none"
         id="text1076"
         x="198.423"
         y="-271.59799"><tspan
           x="198.423"
           y="-271.59799"
           id="tspan1074">8</tspan></text><path
         d="m 193.781,370.232 h 12.34 v 10.006 h -12.34 z m 0,-16.92 h 12.34 v 10.006 h -12.34 z"
         style="fill:none;stroke:#000000;stroke-width:0.59;stroke-linecap:butt;stroke-linejoin:miter;stroke-miterlimit:10;stroke-dasharray:none;stroke-opacity:1"
         id="path1078" /><text
         transform="scale(1,-1)"
         style="font-variant:normal;font-weight:normal;font-size:7.08px;font-family:Helvetica;-inkscape-font-specification:Helvetica;writing-mode:lr-tb;fill:#000000;fill-opacity:1;fill-rule:nonzero;stroke:none"
         id="text1082"
         x="196.015"
         y="-372.66"><tspan
           x="196.015 199.95148"
           y="-372.66"
           id="tspan1080">14</tspan></text><path
         d="m 193.781,336.42 h 12.34 v 10.006 h -12.34 z"
         style="fill:none;stroke:#000000;stroke-width:0.59;stroke-linecap:butt;stroke-linejoin:miter;stroke-miterlimit:10;stroke-dasharray:none;stroke-opacity:1"
         id="path1084" /><text
         transform="scale(1,-1)"
         style="font-variant:normal;font-weight:normal;font-size:7.08px;font-family:Helvetica;-inkscape-font-specification:Helvetica;writing-mode:lr-tb;fill:#000000;fill-opacity:1;fill-rule:nonzero;stroke:none"
         id="text1088"
         x="196.015"
         y="-355.76801"><tspan
           x="196.015 199.95148"
           y="-355.76801"
           id="tspan1086">13</tspan></text><path
         d="m 193.781,319.528 h 12.34 v 10.006 h -12.34 z"
         style="fill:none;stroke:#000000;stroke-width:0.59;stroke-linecap:butt;stroke-linejoin:miter;stroke-miterlimit:10;stroke-dasharray:none;stroke-opacity:1"
         id="path1090" /><text
         transform="scale(1,-1)"
         style="font-variant:normal;font-weight:normal;font-size:7.08px;font-family:Helvetica;-inkscape-font-specification:Helvetica;writing-mode:lr-tb;fill:#000000;fill-opacity:1;fill-rule:nonzero;stroke:none"
         id="text1094"
         x="196.015"
         y="-338.87601"><tspan
           x="196.015 199.95148"
           y="-338.87601"
           id="tspan1092">12</tspan></text><path
         d="m 193.781,302.637 h 12.34 v 10.006 h -12.34 z"
         style="fill:none;stroke:#000000;stroke-width:0.59;stroke-linecap:butt;stroke-linejoin:miter;stroke-miterlimit:10;stroke-dasharray:none;stroke-opacity:1"
         id="path1096" /><text
         transform="scale(1,-1)"
         style="font-variant:normal;font-weight:normal;font-size:7.08px;font-family:Helvetica;-inkscape-font-specification:Helvetica;writing-mode:lr-tb;fill:#000000;fill-opacity:1;fill-rule:nonzero;stroke:none"
         id="text1100"
         x="196.015"
         y="-321.98499"><tspan
           x="196.015 199.95148"
           y="-321.98499"
           id="tspan1098">11</tspan></text><path
         d="m 193.781,285.745 h 12.34 v 10.006 h -12.34 z"
         style="fill:none;stroke:#000000;stroke-width:0.59;stroke-linecap:butt;stroke-linejoin:miter;stroke-miterlimit:10;stroke-dasharray:none;stroke-opacity:1"
         id="path1102" /><text
         transform="scale(1,-1)"
         style="font-variant:normal;font-weight:normal;font-size:7.08px;font-family:Helvetica;-inkscape-font-specification:Helvetica;writing-mode:lr-tb;fill:#000000;fill-opacity:1;fill-rule:nonzero;stroke:none"
         id="text1106"
         x="196.015"
         y="-305.09299"><tspan
           x="196.015 199.95148"
           y="-305.09299"
           id="tspan1104">10</tspan></text><path
         d="m 193.781,268.853 h 12.34 v 10.006 h -12.34 z"
         style="fill:none;stroke:#000000;stroke-width:0.59;stroke-linecap:butt;stroke-linejoin:miter;stroke-miterlimit:10;stroke-dasharray:none;stroke-opacity:1"
         id="path1108" /><text
         transform="scale(1,-1)"
         style="font-variant:normal;font-weight:normal;font-size:7.08px;font-family:Helvetica;-inkscape-font-specification:Helvetica;writing-mode:lr-tb;fill:#000000;fill-opacity:1;fill-rule:nonzero;stroke:none"
         id="text1142"
         x="197.983"
         y="-288.034"><tspan
           x="197.983"
           y="-288.034"
           id="tspan1110">9</tspan><tspan
           x="114.06376 118.00024 123.112"
           y="-372.87363"
           id="tspan1112">1RD</tspan><tspan
           x="119.17552 123.112"
           y="-355.88165"
           id="tspan1114">1D</tspan><tspan
           x="114.45316 118.38964 123.5014"
           y="-338.88965"
           id="tspan1116">1CP</tspan><tspan
           x="114.45316 118.38964 123.112"
           y="-321.89764"
           id="tspan1118">1SD</tspan><tspan
           x="118.77905 122.71552"
           y="-304.90564"
           id="tspan1120">1Q</tspan><tspan
           x="118.77905 122.71552"
           y="-287.91364"
           id="tspan1122">1Q</tspan><tspan
           x="112.492 118.00024 123.112"
           y="-270.92163"
           id="tspan1124">GND</tspan><tspan
           x="209.05612 212.9926"
           y="-271.07739"
           id="tspan1126">2Q</tspan><tspan
           x="209.05612 212.9926"
           y="-287.90656"
           id="tspan1128">2Q</tspan><tspan
           x="209.05612 212.9926 217.71497"
           y="-305.15344"
           id="tspan1130">2SD</tspan><tspan
           x="209.05612 212.9926 218.10435"
           y="-321.5578"
           id="tspan1132">2CP</tspan><tspan
           x="209.05612 212.9926"
           y="-338.38696"
           id="tspan1134">2D</tspan><tspan
           x="209.05612 212.9926 218.10435"
           y="-355.63385"
           id="tspan1136">2RD</tspan><tspan
           x="209.05612"
           y="-372.03821"
           id="tspan1138">V</tspan><tspan
           x="213.77847 218.89024"
           y="-369.68057"
           id="tspan1140">CC</tspan></text><path
         d="m 118.222,379.679 h 4.929 m -4.782,-50.887 h 4.511 m 0.165,-33.618 h 5.017 m 85.216,-17.307 h 5.017 m -5.225,84.813 h 4.929 m -5.2,-50.592 h 4.93"
         style="fill:none;stroke:#000000;stroke-width:0.354;stroke-linecap:butt;stroke-linejoin:miter;stroke-miterlimit:10;stroke-dasharray:none;stroke-opacity:1"
         id="path1144" /><path
         d="m 159.597,375.218 c 0,-2.764 -2.24,-5.003 -5.003,-5.003 -2.763,0 -5.003,2.239 -5.003,5.003 0,2.763 2.24,5.003 5.003,5.003 2.763,0 5.003,-2.24 5.003,-5.003 z"
         style="fill:none;stroke:#000000;stroke-width:0.59;stroke-linecap:butt;stroke-linejoin:miter;stroke-miterlimit:10;stroke-dasharray:none;stroke-opacity:1"
         id="path1146" /></g></g></svg>
