<?xml version="1.0" encoding="UTF-8" standalone="no"?>
<!-- Created with Inkscape (http://www.inkscape.org/) -->

<svg
   version="1.1"
   id="svg270031"
   xml:space="preserve"
   width="211.14639"
   height="298.7424"
   viewBox="0 0 211.14639 298.7424"
   xmlns="http://www.w3.org/2000/svg"
   xmlns:svg="http://www.w3.org/2000/svg"><defs
     id="defs270035"><clipPath
       clipPathUnits="userSpaceOnUse"
       id="clipPath270045"><path
         d="M 0,792 H 610.0157 V 2.4945 H 0 Z"
         id="path270043" /></clipPath><clipPath
       clipPathUnits="userSpaceOnUse"
       id="clipPath270913"><path
         d="M 0,792.25 H 612 V 0.25 H 0 Z"
         id="path270911" /></clipPath></defs><g
     id="g270037"
     transform="matrix(1.3333333,0,0,-1.3333333,-494.02064,885.30666)"><path
       d="m 452.2394,602.0787 h 10.9417 v 0 -9.4677 h -10.9417 z m 0,12.6426 h 10.9417 v -9.5245 h -10.9417 z m 0,12.5858 h 10.9417 v -9.4677 h -10.9417 z m 0,12.6425 h 10.9417 v -9.4677 h -10.9417 z m -52.4977,-37.8709 h 10.9418 v -9.4677 h -10.9418 z m 0,12.6426 h 10.9418 v -9.5245 h -10.9418 z m 0,12.5858 h 10.9418 v -9.4677 h -10.9418 z m 0,12.6425 h 10.9418 v -9.4677 h -10.9418 z"
       style="fill:none;stroke:#000000;stroke-width:0.2268;stroke-linecap:round;stroke-linejoin:round;stroke-miterlimit:10;stroke-dasharray:none;stroke-opacity:1"
       id="path270221" /><path
       d="m 427.0677,644.1449 c 1.159,-1.6736 2.7308,-2.6138 4.3698,-2.6138 1.6506,0 3.2326,0.9536 4.3935,2.6483"
       style="fill:#ffffff;fill-opacity:1;fill-rule:evenodd;stroke:none"
       id="path270223" /><path
       d="m 427.0677,644.1449 c 1.159,-1.6736 2.7308,-2.6138 4.3698,-2.6138 1.6506,0 3.2326,0.9536 4.3935,2.6483"
       style="fill:none;stroke:#000000;stroke-width:0.9638;stroke-linecap:round;stroke-linejoin:round;stroke-miterlimit:10;stroke-dasharray:none;stroke-opacity:1"
       id="path270225" /><path
       d="m 410.6835,644.3149 v -56.6928 0 h 41.5559 m 0,0.3968 v 56.6929 h -16.3843"
       style="fill:none;stroke:#000000;stroke-width:0.9638;stroke-linecap:round;stroke-linejoin:round;stroke-miterlimit:10;stroke-dasharray:none;stroke-opacity:1"
       id="path270227" /><path
       d="m 410.6835,644.7118 h 16.3842"
       style="fill:none;stroke:#000000;stroke-width:0.9638;stroke-linecap:round;stroke-linejoin:round;stroke-miterlimit:10;stroke-dasharray:none;stroke-opacity:1"
       id="path270229" /><text
       transform="scale(1,-1)"
       style="font-variant:normal;font-weight:bold;font-size:6px;font-family:Helvetica;-inkscape-font-specification:Helvetica-Bold;writing-mode:lr-tb;fill:#000000;fill-opacity:1;fill-rule:nonzero;stroke:none"
       id="text270245"
       x="403.59689"
       y="-634.11023"><tspan
         x="403.59689"
         y="-634.11023"
         id="tspan270231">1</tspan><tspan
         x="403.59689"
         y="-621.5246"
         id="tspan270233">2</tspan><tspan
         x="403.59689"
         y="-608.88202"
         id="tspan270235">3</tspan><tspan
         x="403.59689 456.03809"
         y="-596.23938"
         id="tspan270237">45</tspan><tspan
         x="456.03809"
         y="-608.88202"
         id="tspan270239">6</tspan><tspan
         x="456.03809"
         y="-621.5246"
         id="tspan270241">7</tspan><tspan
         x="456.03809"
         y="-634.11023"
         id="tspan270243">8</tspan></text><path
       d="m 413.0079,554.6835 v -95.4709 0 h 40.1386 m -40.1386,96.1512 h 14.7968 v 0 c 1.1197,-2.1 2.6384,-3.2798 4.222,-3.2798 1.5844,0 3.1038,1.181 4.2237,3.2828 l 0.002,-0.003 h 16.8945 v -95.5276"
       style="fill:none;stroke:#000000;stroke-width:0.9638;stroke-linecap:round;stroke-linejoin:round;stroke-miterlimit:10;stroke-dasharray:none;stroke-opacity:1"
       id="path270247" /><path
       d="m 453.1465,473.1591 h 10.3748 v -9.6945 h -10.3748 z m 0,12.9826 h 10.3748 v -9.7511 h -10.3748 z m 0,12.9827 h 10.3748 v -9.7512 h -10.3748 z m 0,12.926 h 10.3748 v -9.6945 h -10.3748 z m 0,12.9827 h 10.3748 v -9.7512 h -10.3748 z m 0,12.9259 h 10.3748 v -9.6945 h -10.3748 z m 0,12.9827 h 10.3748 v -9.7511 h -10.3748 z m -50.5134,-77.7826 h 10.3748 v -9.6945 h -10.3748 z m 0,12.9826 h 10.3748 v -9.7511 h -10.3748 z m 0,12.9827 h 10.3748 v -9.7512 h -10.3748 z m 0,12.926 h 10.3748 v -9.6945 h -10.3748 z m 0,12.9827 h 10.3748 v -9.7512 h -10.3748 z m 0,12.9259 h 10.3748 v -9.6945 h -10.3748 z m 0,12.9827 h 10.3748 v -9.7511 h -10.3748 z"
       style="fill:none;stroke:#000000;stroke-width:0.2268;stroke-linecap:round;stroke-linejoin:round;stroke-miterlimit:10;stroke-dasharray:none;stroke-opacity:1"
       id="path270249" /><text
       transform="scale(1,-1)"
       style="font-variant:normal;font-weight:normal;font-size:6px;font-family:Helvetica;-inkscape-font-specification:Helvetica;writing-mode:lr-tb;fill:#000000;fill-opacity:1;fill-rule:nonzero;stroke:none"
       id="text270277"
       x="406.20471"
       y="-544.98901"><tspan
         x="406.20471"
         y="-544.98901"
         id="tspan270251">1</tspan><tspan
         x="406.20471"
         y="-532.00623"
         id="tspan270253">2</tspan><tspan
         x="406.20471"
         y="-519.02338"
         id="tspan270255">3</tspan><tspan
         x="406.20471"
         y="-506.0976"
         id="tspan270257">4</tspan><tspan
         x="406.20471"
         y="-493.11481"
         id="tspan270259">5</tspan><tspan
         x="406.20471"
         y="-480.189"
         id="tspan270261">6</tspan><tspan
         x="406.20471 456.71811"
         y="-467.20621"
         id="tspan270263">78</tspan><tspan
         x="455.01709 458.35309"
         y="-544.98901"
         id="tspan270265">14</tspan><tspan
         x="455.01709 458.35309"
         y="-532.00623"
         id="tspan270267">13</tspan><tspan
         x="455.01709 458.35309"
         y="-519.02338"
         id="tspan270269">12</tspan><tspan
         x="455.2439 458.13528"
         y="-506.0976"
         id="tspan270271">11</tspan><tspan
         x="455.01709 458.35309"
         y="-493.11481"
         id="tspan270273">10</tspan><tspan
         x="456.71811"
         y="-480.189"
         id="tspan270275">9</tspan></text><text
       transform="scale(1,-1)"
       style="font-variant:normal;font-weight:bold;font-size:6px;font-family:Helvetica;-inkscape-font-specification:Helvetica-Bold;writing-mode:lr-tb;fill:#000000;fill-opacity:1;fill-rule:nonzero;stroke:none"
       id="text270321"
       x="384.43491"
       y="-632.1828"><tspan
         x="384.43491 389.10291 393.43491"
         y="-632.1828"
         id="tspan270279">GND</tspan><tspan
         x="370.43149 374.0975 378.4295 380.0975 384.7655 389.4335 393.43549"
         y="-619.71057"
         id="tspan270281">TRIGGER</tspan><tspan
         x="373.03909 377.70709 382.03909 385.70511 389.70709 394.03909"
         y="-607.2384"
         id="tspan270283">OUTPUT</tspan><tspan
         x="377.6879 382.0199 386.02191 390.0239 394.02591"
         y="-594.70923"
         id="tspan270285">RESET</tspan><tspan
         x="387.15591 391.82391 396.15591"
         y="-542.89197"
         id="tspan270287">GND</tspan><tspan
         x="391.80469 396.13669"
         y="-529.90918"
         id="tspan270289">NC</tspan><tspan
         x="373.1525 376.81851 381.15051 382.81851 387.48651 392.15451 396.15649"
         y="-516.92639"
         id="tspan270291">TRIGGER</tspan><tspan
         x="375.7601 380.4281 384.7601 388.42609 392.4281 396.7601"
         y="-503.9436"
         id="tspan270293">OUTPUT</tspan><tspan
         x="391.80411 396.13611"
         y="-491.01779"
         id="tspan270295">NC</tspan><tspan
         x="380.40891 384.74091 388.74289 392.7449 396.74689"
         y="-478.035"
         id="tspan270297">RESET</tspan><tspan
         x="391.80411 396.13611"
         y="-465.05219"
         id="tspan270299">NC</tspan><tspan
         x="466.9787 471.3107 472.9787 476.98071 481.31271 485.64471 489.97672 494.30872 498.97672"
         y="-619.71057"
         id="tspan270301">DISCHARGE</tspan><tspan
         x="466.9787 470.64471 474.97672 479.30872 483.3107 487.31271 491.64471 496.31271 499.9787"
         y="-607.2384"
         id="tspan270303">THRESHOLD</tspan><tspan
         x="466.9787 471.3107 475.9787 480.3107 483.97672 488.30872 492.97672 496.62891 498.29691 502.29889 506.96689 510.17871 513.41028 517.74231 522.41028"
         y="-594.70923"
         id="tspan270305">CONTROL VOLTAGE</tspan><tspan
         x="469.69971 474.03171"
         y="-529.90918"
         id="tspan270307">NC</tspan><tspan
         x="469.69971 474.03171 475.69971 479.70169 484.03369 488.36569 492.69769 497.02969 501.69769"
         y="-516.92639"
         id="tspan270309">DISCHARGE</tspan><tspan
         x="469.69971 474.03171"
         y="-503.9436"
         id="tspan270311">NC</tspan><tspan
         x="469.69971 473.36569 477.69769 482.02969 486.03171 490.03369 494.36569 499.03369 502.69971"
         y="-491.01779"
         id="tspan270313">THRESHOLD</tspan><tspan
         x="469.69971 474.03171"
         y="-478.035"
         id="tspan270315">NC</tspan><tspan
         x="469.69971 474.03171 478.69971 483.03171 486.69769 491.02969 495.69769 499.34991 501.01791 505.0199 509.6879 512.89972 516.13129 520.46332 525.13129"
         y="-465.05219"
         id="tspan270317">CONTROL VOLTAGE</tspan><tspan
         x="467.94229"
         y="-631.95599"
         id="tspan270319">V</tspan></text><text
       transform="scale(1,-1)"
       style="font-variant:normal;font-weight:bold;font-size:6.5px;font-family:Helvetica;-inkscape-font-specification:Helvetica-Bold;writing-mode:lr-tb;fill:#000000;fill-opacity:1;fill-rule:nonzero;stroke:none"
       id="text270325"
       x="471.96851"
       y="-630.19843"><tspan
         x="471.96851 476.67386"
         y="-630.19843"
         id="tspan270323">CC</tspan></text><text
       transform="scale(1,-1)"
       style="font-variant:normal;font-weight:bold;font-size:6px;font-family:Helvetica;-inkscape-font-specification:Helvetica-Bold;writing-mode:lr-tb;fill:#000000;fill-opacity:1;fill-rule:nonzero;stroke:none"
       id="text270329"
       x="470.66461"
       y="-542.60791"><tspan
         x="470.66461"
         y="-542.60791"
         id="tspan270327">V</tspan></text><text
       transform="scale(1,-1)"
       style="font-variant:normal;font-weight:bold;font-size:6.5px;font-family:Helvetica;-inkscape-font-specification:Helvetica-Bold;writing-mode:lr-tb;fill:#000000;fill-opacity:1;fill-rule:nonzero;stroke:none"
       id="text270333"
       x="474.68979"
       y="-540.8504"><tspan
         x="474.68979 479.39514"
         y="-540.8504"
         id="tspan270331">CC</tspan></text><text
       transform="scale(1,-1)"
       style="font-variant:normal;font-weight:bold;font-size:8px;font-family:Helvetica;-inkscape-font-specification:Helvetica-Bold;writing-mode:lr-tb;fill:#000000;fill-opacity:1;fill-rule:nonzero;stroke:none"
       id="text270341"
       x="401.72601"
       y="-658.14801"><tspan
         x="401.72601 407.50201 409.7196 411.9436 417.7196 419.9436 422.1676 427.0556 432.3916 434.6156 439.9516 444.3996 448.8476 453.29559 457.74359 462.63159 467.07959"
         y="-658.14801"
         id="tspan270335">D, N, FE Packages</tspan><tspan
         x="417.14679 421.85239 428.07642 433.41241 435.63641 440.97241 443.19641 448.53241"
         y="-440.10721"
         id="tspan270337">TOP VIEW</tspan><tspan
         x="413.68842 418.57642 420.80042 426.13641 430.58441 435.03241 439.48041 443.92841 448.81641"
         y="-563.98077"
         id="tspan270339">F Package</tspan></text></g></svg>
