<?xml version="1.0" encoding="UTF-8" standalone="no"?>
<!-- Created with Inkscape (http://www.inkscape.org/) -->

<svg
   version="1.1"
   id="svg1940"
   xml:space="preserve"
   width="175.72533"
   height="163.85466"
   viewBox="0 0 175.72532 163.85465"
   sodipodi:docname="image.svg"
   inkscape:version="1.1.1 (3bf5ae0d25, 2021-09-20, custom)"
   xmlns:inkscape="http://www.inkscape.org/namespaces/inkscape"
   xmlns:sodipodi="http://sodipodi.sourceforge.net/DTD/sodipodi-0.dtd"
   xmlns="http://www.w3.org/2000/svg"
   xmlns:svg="http://www.w3.org/2000/svg"><defs
     id="defs1944"><clipPath
       clipPathUnits="userSpaceOnUse"
       id="clipPath1984"><path
         d="m 49.843,704.141 h 240.72 V 399.701 H 49.843 Z"
         id="path1982" /></clipPath><clipPath
       clipPathUnits="userSpaceOnUse"
       id="clipPath2118"><path
         d="m 304.723,704.141 h 240.72 v -304.44 h -240.72 z"
         id="path2116" /></clipPath></defs><sodipodi:namedview
     id="namedview1942"
     pagecolor="#ffffff"
     bordercolor="#666666"
     borderopacity="1.0"
     inkscape:pageshadow="2"
     inkscape:pageopacity="0.0"
     inkscape:pagecheckerboard="0"
     showgrid="false"
     inkscape:zoom="2.1591109"
     inkscape:cx="63.68362"
     inkscape:cy="122.27255"
     inkscape:window-width="1920"
     inkscape:window-height="1016"
     inkscape:window-x="0"
     inkscape:window-y="27"
     inkscape:window-maximized="1"
     inkscape:current-layer="g1946" /><g
     id="g1946"
     inkscape:groupmode="layer"
     inkscape:label="datasheet"
     transform="matrix(1.3333333,0,0,-1.3333333,-499.99199,838.21665)"><path
       d="m 506.788,619.989 v -2.604"
       style="fill:#ffffff;fill-opacity:1;fill-rule:nonzero;stroke:none"
       id="path2106" /><path
       d="m 506.788,617.385 v -3.001"
       style="fill:#ffffff;fill-opacity:1;fill-rule:nonzero;stroke:none"
       id="path2110" /><path
       d="m 375.619,625.365 c 0.346,0 0.626,0.28 0.626,0.625 0,0.346 -0.28,0.626 -0.626,0.626 -0.345,0 -0.625,-0.28 -0.625,-0.626 0,-0.345 0.28,-0.625 0.625,-0.625"
       style="fill:#ffffff;fill-opacity:1;fill-rule:nonzero;stroke:none"
       id="path2126" /><path
       d="m 375.619,620.055 c 0.346,0 0.626,0.28 0.626,0.625 0,0.346 -0.28,0.626 -0.626,0.626 -0.345,0 -0.625,-0.28 -0.625,-0.626 0,-0.345 0.28,-0.625 0.625,-0.625"
       style="fill:#ffffff;fill-opacity:1;fill-rule:nonzero;stroke:none"
       id="path2128" /><path
       d="m 375.619,614.745 c 0.346,0 0.626,0.28 0.626,0.625 0,0.346 -0.28,0.626 -0.626,0.626 -0.345,0 -0.625,-0.28 -0.625,-0.626 0,-0.345 0.28,-0.625 0.625,-0.625"
       style="fill:#ffffff;fill-opacity:1;fill-rule:nonzero;stroke:none"
       id="path2130" /><path
       d="m 375.619,609.435 c 0.346,0 0.626,0.28 0.626,0.625 0,0.346 -0.28,0.626 -0.626,0.626 -0.345,0 -0.625,-0.28 -0.625,-0.626 0,-0.345 0.28,-0.625 0.625,-0.625"
       style="fill:#ffffff;fill-opacity:1;fill-rule:nonzero;stroke:none"
       id="path2132" /><path
       d="m 474.583,625.66 c 0.345,0 0.626,0.28 0.626,0.625 0,0.346 -0.281,0.626 -0.626,0.626 -0.346,0 -0.626,-0.28 -0.626,-0.626 0,-0.345 0.28,-0.625 0.626,-0.625"
       style="fill:#ffffff;fill-opacity:1;fill-rule:nonzero;stroke:none"
       id="path2134" /><path
       d="m 474.583,620.35 c 0.345,0 0.626,0.28 0.626,0.625 0,0.346 -0.281,0.626 -0.626,0.626 -0.346,0 -0.626,-0.28 -0.626,-0.626 0,-0.345 0.28,-0.625 0.626,-0.625"
       style="fill:#ffffff;fill-opacity:1;fill-rule:nonzero;stroke:none"
       id="path2136" /><path
       d="m 474.583,615.04 c 0.345,0 0.626,0.28 0.626,0.625 0,0.346 -0.281,0.626 -0.626,0.626 -0.346,0 -0.626,-0.28 -0.626,-0.626 0,-0.345 0.28,-0.625 0.626,-0.625"
       style="fill:#ffffff;fill-opacity:1;fill-rule:nonzero;stroke:none"
       id="path2138" /><path
       d="m 474.583,609.73 c 0.345,0 0.626,0.28 0.626,0.625 0,0.346 -0.281,0.626 -0.626,0.626 -0.346,0 -0.626,-0.28 -0.626,-0.626 0,-0.345 0.28,-0.625 0.626,-0.625"
       style="fill:#ffffff;fill-opacity:1;fill-rule:nonzero;stroke:none"
       id="path2140" /><path
       d="m 400.598,573.017 h 50.173 v 55.144 h -50.173 z"
       style="fill:none;stroke:#000000;stroke-width:1.003;stroke-linecap:butt;stroke-linejoin:miter;stroke-miterlimit:10;stroke-dasharray:none;stroke-opacity:1"
       id="path2146" /><path
       d="m 379.693,606.722 h 20.905"
       style="fill:none;stroke:#000000;stroke-width:0.502;stroke-linecap:butt;stroke-linejoin:miter;stroke-miterlimit:10;stroke-dasharray:none;stroke-opacity:1"
       id="path2148" /><text
       transform="matrix(1,0,0,-1,465.379,590.247)"
       style="font-variant:normal;font-weight:normal;font-size:7.08px;font-family:Helvetica;-inkscape-font-specification:Helvetica;writing-mode:lr-tb;fill:#000000;fill-opacity:1;fill-rule:nonzero;stroke:none"
       id="text2154"><tspan
         x="0"
         y="0"
         id="tspan2150">6</tspan><tspan
         x="-81.540359"
         y="-18.8328"
         id="tspan2152">3</tspan></text><path
       d="m 379.693,594.296 h 20.905"
       style="fill:none;stroke:#000000;stroke-width:0.502;stroke-linecap:butt;stroke-linejoin:miter;stroke-miterlimit:10;stroke-dasharray:none;stroke-opacity:1"
       id="path2156" /><text
       transform="matrix(1,0,0,-1,383.84,596.556)"
       style="font-variant:normal;font-weight:normal;font-size:7.08px;font-family:Helvetica;-inkscape-font-specification:Helvetica;writing-mode:lr-tb;fill:#000000;fill-opacity:1;fill-rule:nonzero;stroke:none"
       id="text2162"><tspan
         x="0"
         y="0"
         id="tspan2158">2</tspan><tspan
         x="23.34984 28.461599"
         y="-7.6180801"
         sodipodi:role="line"
         id="tspan2160">C1</tspan></text><path
       d="m 379.693,619.282 h 20.905"
       style="fill:none;stroke:#000000;stroke-width:0.502;stroke-linecap:butt;stroke-linejoin:miter;stroke-miterlimit:10;stroke-dasharray:none;stroke-opacity:1"
       id="path2164" /><text
       transform="matrix(1,0,0,-1,383.84,621.599)"
       style="font-variant:normal;font-weight:normal;font-size:7.08px;font-family:Helvetica;-inkscape-font-specification:Helvetica;writing-mode:lr-tb;fill:#000000;fill-opacity:1;fill-rule:nonzero;stroke:none"
       id="text2172"><tspan
         x="0"
         y="0"
         id="tspan2166">4</tspan><tspan
         x="20.22048"
         y="5.1259198"
         id="tspan2168">S</tspan><tspan
         x="19.802759 23.739241"
         y="30.25284"
         sodipodi:role="line"
         id="tspan2170">1D</tspan></text><path
       d="m 392.088,619.545 v 4.599 l 8.363,-4.599 m -20.758,-37.827 h 20.905"
       style="fill:none;stroke:#000000;stroke-width:0.502;stroke-linecap:butt;stroke-linejoin:miter;stroke-miterlimit:10;stroke-dasharray:none;stroke-opacity:1"
       id="path2174" /><text
       transform="matrix(1,0,0,-1,383.84,584.035)"
       style="font-variant:normal;font-weight:normal;font-size:7.08px;font-family:Helvetica;-inkscape-font-specification:Helvetica;writing-mode:lr-tb;fill:#000000;fill-opacity:1;fill-rule:nonzero;stroke:none"
       id="text2180"><tspan
         x="0"
         y="0"
         id="tspan2176">1</tspan><tspan
         x="20.22048"
         y="4.2904801"
         id="tspan2178">R</tspan></text><path
       d="m 392.088,581.982 v 4.599 l 8.363,-4.599 m 50.404,6.133 v 4.6 l 8.362,-4.6"
       style="fill:none;stroke:#000000;stroke-width:0.502;stroke-linecap:butt;stroke-linejoin:miter;stroke-miterlimit:10;stroke-dasharray:none;stroke-opacity:1"
       id="path2182" /><text
       transform="matrix(1,0,0,-1,465.379,615.253)"
       style="font-variant:normal;font-weight:normal;font-size:7.08px;font-family:Helvetica;-inkscape-font-specification:Helvetica;writing-mode:lr-tb;fill:#000000;fill-opacity:1;fill-rule:nonzero;stroke:none"
       id="text2186"><tspan
         x="0"
         y="0"
         id="tspan2184">5</tspan></text><path
       d="M 471.14,612.838 H 450.859 M 471.14,588.044 H 450.859"
       style="fill:none;stroke:#000000;stroke-width:0.502;stroke-linecap:butt;stroke-linejoin:miter;stroke-miterlimit:10;stroke-dasharray:none;stroke-opacity:1"
       id="path2188" /><path
       d="m 400.535,610.123 4.599,-3.345 -4.599,-3.345 z"
       style="fill:none;stroke:#000000;stroke-width:0.502;stroke-linecap:butt;stroke-linejoin:miter;stroke-miterlimit:4;stroke-dasharray:none;stroke-opacity:1"
       id="path2190" /><path
       d="m 400.598,506.273 h 50.173 v 55.144 h -50.173 z"
       style="fill:none;stroke:#000000;stroke-width:1.003;stroke-linecap:butt;stroke-linejoin:miter;stroke-miterlimit:10;stroke-dasharray:none;stroke-opacity:1"
       id="path2192" /><path
       d="m 379.693,539.979 h 20.905"
       style="fill:none;stroke:#000000;stroke-width:0.502;stroke-linecap:butt;stroke-linejoin:miter;stroke-miterlimit:10;stroke-dasharray:none;stroke-opacity:1"
       id="path2194" /><text
       transform="matrix(1,0,0,-1,465.379,523.503)"
       style="font-variant:normal;font-weight:normal;font-size:7.08px;font-family:Helvetica;-inkscape-font-specification:Helvetica;writing-mode:lr-tb;fill:#000000;fill-opacity:1;fill-rule:nonzero;stroke:none"
       id="text2200"><tspan
         x="0"
         y="0"
         id="tspan2196">8</tspan><tspan
         x="-85.476837 -81.540359"
         y="-18.8328"
         sodipodi:role="line"
         id="tspan2198">11</tspan></text><path
       d="m 379.693,527.552 h 20.905"
       style="fill:none;stroke:#000000;stroke-width:0.502;stroke-linecap:butt;stroke-linejoin:miter;stroke-miterlimit:10;stroke-dasharray:none;stroke-opacity:1"
       id="path2202" /><text
       transform="matrix(1,0,0,-1,379.903,529.813)"
       style="font-variant:normal;font-weight:normal;font-size:7.08px;font-family:Helvetica;-inkscape-font-specification:Helvetica;writing-mode:lr-tb;fill:#000000;fill-opacity:1;fill-rule:nonzero;stroke:none"
       id="text2208"><tspan
         x="0 3.93648"
         y="0"
         sodipodi:role="line"
         id="tspan2204">12</tspan><tspan
         x="27.28632 32.398079"
         y="-7.6180801"
         sodipodi:role="line"
         id="tspan2206">C1</tspan></text><path
       d="m 379.693,552.538 h 20.905"
       style="fill:none;stroke:#000000;stroke-width:0.502;stroke-linecap:butt;stroke-linejoin:miter;stroke-miterlimit:10;stroke-dasharray:none;stroke-opacity:1"
       id="path2210" /><text
       transform="matrix(1,0,0,-1,379.903,554.855)"
       style="font-variant:normal;font-weight:normal;font-size:7.08px;font-family:Helvetica;-inkscape-font-specification:Helvetica;writing-mode:lr-tb;fill:#000000;fill-opacity:1;fill-rule:nonzero;stroke:none"
       id="text2218"><tspan
         x="0 3.93648"
         y="0"
         sodipodi:role="line"
         id="tspan2212">10</tspan><tspan
         x="24.15696"
         y="5.1259198"
         id="tspan2214">S</tspan><tspan
         x="23.739241 27.67572"
         y="30.25284"
         sodipodi:role="line"
         id="tspan2216">1D</tspan></text><path
       d="m 392.088,552.801 v 4.6 l 8.363,-4.6 m -20.758,-37.827 h 20.905"
       style="fill:none;stroke:#000000;stroke-width:0.502;stroke-linecap:butt;stroke-linejoin:miter;stroke-miterlimit:10;stroke-dasharray:none;stroke-opacity:1"
       id="path2220" /><text
       transform="matrix(1,0,0,-1,379.903,517.292)"
       style="font-variant:normal;font-weight:normal;font-size:7.08px;font-family:Helvetica;-inkscape-font-specification:Helvetica;writing-mode:lr-tb;fill:#000000;fill-opacity:1;fill-rule:nonzero;stroke:none"
       id="text2226"><tspan
         x="0 3.93648"
         y="0"
         sodipodi:role="line"
         id="tspan2222">13</tspan><tspan
         x="24.15696"
         y="4.2904801"
         id="tspan2224">R</tspan></text><path
       d="m 392.088,515.238 v 4.599 l 8.363,-4.599 m 50.404,6.134 v 4.599 l 8.362,-4.599"
       style="fill:none;stroke:#000000;stroke-width:0.502;stroke-linecap:butt;stroke-linejoin:miter;stroke-miterlimit:10;stroke-dasharray:none;stroke-opacity:1"
       id="path2228" /><text
       transform="matrix(1,0,0,-1,465.379,548.509)"
       style="font-variant:normal;font-weight:normal;font-size:7.08px;font-family:Helvetica;-inkscape-font-specification:Helvetica;writing-mode:lr-tb;fill:#000000;fill-opacity:1;fill-rule:nonzero;stroke:none"
       id="text2232"><tspan
         x="0"
         y="0"
         id="tspan2230">9</tspan></text><path
       d="M 471.14,546.094 H 450.859 M 471.14,521.3 h -20.281"
       style="fill:none;stroke:#000000;stroke-width:0.502;stroke-linecap:butt;stroke-linejoin:miter;stroke-miterlimit:10;stroke-dasharray:none;stroke-opacity:1"
       id="path2234" /><path
       d="m 400.535,543.379 4.599,-3.345 -4.599,-3.345 z"
       style="fill:none;stroke:#000000;stroke-width:0.502;stroke-linecap:butt;stroke-linejoin:miter;stroke-miterlimit:4;stroke-dasharray:none;stroke-opacity:1"
       id="path2236" /></g></svg>
