<?xml version="1.0" encoding="UTF-8" standalone="no"?>
<!-- Created with Inkscape (http://www.inkscape.org/) -->

<svg
   version="1.1"
   id="svg2354"
   xml:space="preserve"
   width="817.32678"
   height="418.51266"
   viewBox="0 0 817.32682 418.51267"
   sodipodi:docname="7.svg"
   inkscape:version="1.1.2 (0a00cf5339, 2022-02-04, custom)"
   xmlns:inkscape="http://www.inkscape.org/namespaces/inkscape"
   xmlns:sodipodi="http://sodipodi.sourceforge.net/DTD/sodipodi-0.dtd"
   xmlns="http://www.w3.org/2000/svg"
   xmlns:svg="http://www.w3.org/2000/svg"><defs
     id="defs2358"><clipPath
       clipPathUnits="userSpaceOnUse"
       id="clipPath2368"><path
         d="M 0,0 H 793.75 V 595.25 H 0 Z"
         clip-rule="evenodd"
         id="path2366" /></clipPath></defs><sodipodi:namedview
     id="namedview2356"
     pagecolor="#ffffff"
     bordercolor="#666666"
     borderopacity="1.0"
     inkscape:pageshadow="2"
     inkscape:pageopacity="0.0"
     inkscape:pagecheckerboard="0"
     showgrid="false"
     inkscape:zoom="0.54745904"
     inkscape:cx="516.93365"
     inkscape:cy="150.69621"
     inkscape:window-width="1585"
     inkscape:window-height="1091"
     inkscape:window-x="35"
     inkscape:window-y="32"
     inkscape:window-maximized="0"
     inkscape:current-layer="g2362" /><g
     id="g2360"
     inkscape:groupmode="layer"
     inkscape:label="MMI_EL0502_Unit1"
     transform="matrix(1.3333333,0,0,1.3333333,-170.81317,-235.76666)"><g
       id="g2362"><g
         id="g2382"><path
           d="m 298.68,277.8 h 90.48 v 92.64 h -90.48 z"
           style="fill:#00cc99;fill-opacity:1;fill-rule:evenodd;stroke:none"
           id="path2384" /></g><g
         id="g2386"><path
           d="m 389.503,277.428 v 93.328 H 298.36 v -93.328 z m -90.768,0.75 0.375,-0.375 v 92.578 l -0.375,-0.375 h 90.393 l -0.375,0.375 v -92.578 l 0.375,0.375 h -90.393"
           style="fill:#000000;fill-opacity:1;fill-rule:nonzero;stroke:none"
           id="path2388" /></g><text
         style="font-variant:normal;font-weight:normal;font-stretch:normal;font-size:18px;font-family:'DejaVu Sans';-inkscape-font-specification:DejaVuSans;writing-mode:lr-tb;fill:#000000;fill-opacity:1;fill-rule:nonzero;stroke:none"
         id="text2392"
         x="302.79486"
         y="303.09274"><tspan
           x="302.79486"
           y="303.09274"
           id="tspan2390">D</tspan></text><text
         style="font-variant:normal;font-weight:normal;font-stretch:normal;font-size:18px;font-family:'DejaVu Sans';-inkscape-font-specification:DejaVuSans;writing-mode:lr-tb;fill:#000000;fill-opacity:1;fill-rule:nonzero;stroke:none"
         id="text2396"
         x="370.42755"
         y="301.38251"><tspan
           x="370.42755"
           y="301.38251"
           id="tspan2394">Q</tspan></text><text
         style="font-variant:normal;font-weight:normal;font-stretch:normal;font-size:18px;font-family:'DejaVu Sans';-inkscape-font-specification:DejaVuSans;writing-mode:lr-tb;fill:#000000;fill-opacity:1;fill-rule:nonzero;stroke:none"
         id="text2400"
         x="303.42233"
         y="363.19888"><tspan
           x="303.42233 315.97235 320.97235"
           y="363.19888"
           sodipodi:role="line"
           id="tspan2398">Clk</tspan></text><text
         style="font-variant:normal;font-weight:normal;font-stretch:normal;font-size:18px;font-family:'DejaVu Sans';-inkscape-font-specification:DejaVuSans;writing-mode:lr-tb;fill:#000000;fill-opacity:1;fill-rule:nonzero;stroke:none"
         id="text2404"
         x="370.05832"
         y="362.53177"><tspan
           x="370.05832"
           y="362.53177"
           id="tspan2402">Q</tspan></text><g
         id="g2406"
         transform="translate(9.6713681,0.67294206)"><path
           d="m 360.605,343.619 h 14.331 v 2 h -14.331 z"
           style="fill:#000000;fill-opacity:1;fill-rule:nonzero;stroke:none"
           id="path2408" /></g><g
         id="g2410"><path
           d="m 205.034,297.267 h 93.701 v 0.75 h -93.701 z"
           style="fill:#000000;fill-opacity:1;fill-rule:nonzero;stroke:none"
           id="path2412" /></g><g
         id="g2414"><path
           d="m 350.52,248.04 -29.76,-18.12 29.76,-18.24 v 36.36"
           style="fill:#ffcc99;fill-opacity:1;fill-rule:evenodd;stroke:none"
           id="path2416" /></g><g
         id="g2418"><path
           d="m 320.063,229.861 30.858,-18.853 v 37.707 z m 30.678,17.865 -0.57,0.32 v -36.37 l 0.57,0.32 -29.764,18.185 v -0.64 l 29.764,18.185"
           style="fill:#000000;fill-opacity:1;fill-rule:nonzero;stroke:none"
           id="path2420" /></g><g
         id="g2422"><path
           d="m 350.546,231.139 h 72.756 v 0.75 h -72.756 z"
           style="fill:#000000;fill-opacity:1;fill-rule:nonzero;stroke:none"
           id="path2424" /></g><g
         id="g2426"><path
           d="m 423.677,231.514 v 66.128 h -0.75 v -66.128 h 0.75"
           style="fill:#000000;fill-opacity:1;fill-rule:nonzero;stroke:none"
           id="path2428" /></g><g
         id="g2430"><path
           d="m 390.231,297.267 h 33.071 v 0.75 h -33.071 z"
           style="fill:#000000;fill-opacity:1;fill-rule:nonzero;stroke:none"
           id="path2432" /></g><g
         id="g2434"><path
           d="m 205.034,356.781 h 93.701 v 0.75 h -93.701 z"
           style="fill:#000000;fill-opacity:1;fill-rule:nonzero;stroke:none"
           id="path2436" /></g><g
         id="g2438"><path
           d="m 390.231,356.781 h 132.284 v 0.75 H 390.231 Z"
           style="fill:#000000;fill-opacity:1;fill-rule:nonzero;stroke:none"
           id="path2440" /></g><g
         id="g2442"><path
           d="m 522.889,343.931 v 26.45 h -0.75 v -26.45 h 0.75"
           style="fill:#000000;fill-opacity:1;fill-rule:nonzero;stroke:none"
           id="path2444" /></g><g
         id="g2446"><path
           d="m 529.504,343.931 v 26.45 h -0.75 v -26.45 h 0.75"
           style="fill:#000000;fill-opacity:1;fill-rule:nonzero;stroke:none"
           id="path2448" /></g><g
         id="g2450"><path
           d="m 529.129,344.306 h 13.228 v -0.75 h -13.228 v 0.75"
           style="fill:#000000;fill-opacity:1;fill-rule:nonzero;stroke:none"
           id="path2452" /></g><g
         id="g2454"><path
           d="m 529.129,370.756 h 13.228 v -0.75 h -13.228 v 0.75"
           style="fill:#000000;fill-opacity:1;fill-rule:nonzero;stroke:none"
           id="path2456" /></g><g
         id="g2458"><path
           d="m 532.44,218.28 h 19.8 V 258 h -19.8 z"
           style="fill:#cc99ff;fill-opacity:1;fill-rule:evenodd;stroke:none"
           id="path2460" /></g><g
         id="g2462"><path
           d="m 552.653,217.914 v 40.426 h -20.592 v -40.426 z m -20.217,0.75 0.375,-0.375 v 39.676 l -0.375,-0.375 h 19.842 l -0.375,0.375 v -39.676 l 0.375,0.375 h -19.842"
           style="fill:#000000;fill-opacity:1;fill-rule:nonzero;stroke:none"
           id="path2464" /></g><g
         id="g2466"><path
           d="m 542.732,257.965 v 85.966 h -0.75 v -85.966 h 0.75"
           style="fill:#000000;fill-opacity:1;fill-rule:nonzero;stroke:none"
           id="path2468" /></g><g
         id="g2470"><path
           d="m 542.357,297.267 h 145.512 v 0.75 H 542.357 Z"
           style="fill:#000000;fill-opacity:1;fill-rule:nonzero;stroke:none"
           id="path2472" /></g><g
         id="g2474"><path
           d="m 539.04,297.6 c 0.01,-1.785 1.491,-3.265 3.317,-3.265 1.826,0 3.307,1.48 3.307,3.307 0,1.826 -1.481,3.306 -3.307,3.306 -1.826,0 -3.307,-1.48 -3.317,-3.348"
           style="fill:#000000;fill-opacity:1;fill-rule:evenodd;stroke:none"
           id="path2476" /></g><g
         id="g2478"><path
           d="m 538.692,297.285 0.004,-0.038 0.05,-0.328 0.008,-0.037 0.081,-0.317 0.011,-0.036 0.112,-0.303 0.014,-0.034 0.139,-0.289 0.018,-0.032 0.165,-0.273 0.02,-0.03 0.191,-0.254 0.023,-0.028 0.213,-0.235 0.025,-0.025 0.235,-0.213 0.028,-0.023 0.254,-0.19 0.03,-0.021 0.273,-0.165 0.032,-0.018 0.289,-0.139 0.034,-0.014 0.304,-0.111 0.035,-0.011 0.317,-0.082 0.037,-0.007 0.328,-0.05 0.038,-0.004 0.338,-0.017 h 0.038 l 0.338,0.017 0.038,0.004 0.328,0.05 0.037,0.007 0.317,0.082 0.035,0.011 0.304,0.111 0.034,0.014 0.289,0.139 0.032,0.018 0.273,0.165 0.03,0.021 0.254,0.19 0.028,0.023 0.235,0.213 0.025,0.025 0.213,0.235 0.023,0.028 0.191,0.254 0.02,0.03 0.165,0.273 0.018,0.032 0.139,0.289 0.014,0.034 0.111,0.303 0.012,0.036 0.081,0.317 0.008,0.037 0.05,0.328 0.003,0.038 0.018,0.338 v 0.037 l -0.018,0.339 -0.003,0.037 -0.05,0.328 -0.008,0.037 -0.081,0.317 -0.012,0.036 -0.111,0.303 -0.014,0.034 -0.139,0.289 -0.018,0.032 -0.165,0.273 -0.02,0.03 -0.191,0.254 -0.023,0.028 -0.213,0.235 -0.025,0.025 -0.235,0.213 -0.028,0.023 -0.254,0.191 -0.03,0.02 -0.273,0.165 -0.032,0.018 -0.289,0.139 -0.034,0.014 -0.304,0.111 -0.035,0.011 -0.317,0.082 -0.037,0.007 -0.328,0.051 -0.038,0.003 -0.338,0.017 h -0.038 l -0.338,-0.017 -0.038,-0.003 -0.328,-0.051 -0.037,-0.007 -0.317,-0.082 -0.035,-0.011 -0.304,-0.111 -0.034,-0.014 -0.289,-0.139 -0.032,-0.018 -0.273,-0.165 -0.03,-0.02 -0.254,-0.191 -0.028,-0.023 -0.235,-0.213 -0.025,-0.025 -0.213,-0.235 -0.023,-0.028 -0.191,-0.254 -0.02,-0.03 -0.165,-0.273 -0.018,-0.032 -0.139,-0.289 -0.014,-0.034 -0.112,-0.303 -0.011,-0.036 -0.081,-0.317 -0.008,-0.037 -0.05,-0.328 -0.004,-0.037 -0.017,-0.339 v -0.037 z m 0.732,0.375 v -0.037 l 0.017,0.338 -0.003,-0.038 0.05,0.328 -0.008,-0.037 0.082,0.317 -0.011,-0.035 0.111,0.304 -0.014,-0.034 0.139,0.289 -0.018,-0.032 0.166,0.272 -0.02,-0.029 0.19,0.254 -0.022,-0.028 0.213,0.235 -0.025,-0.025 0.235,0.213 -0.028,-0.022 0.254,0.19 -0.029,-0.02 0.272,0.165 -0.032,-0.017 0.289,0.139 -0.033,-0.014 0.303,0.111 -0.035,-0.011 0.317,0.082 -0.037,-0.008 0.328,0.05 -0.037,-0.004 0.338,0.017 h -0.038 l 0.338,-0.017 -0.037,0.004 0.328,-0.05 -0.037,0.008 0.317,-0.082 -0.035,0.011 0.303,-0.111 -0.033,0.014 0.289,-0.139 -0.032,0.017 0.272,-0.165 -0.03,0.02 0.255,-0.19 -0.028,0.022 0.235,-0.213 -0.025,0.025 0.213,-0.235 -0.022,0.028 0.19,-0.254 -0.02,0.029 0.165,-0.272 -0.017,0.032 0.139,-0.289 -0.014,0.034 0.111,-0.304 -0.011,0.035 0.082,-0.317 -0.008,0.037 0.05,-0.328 -0.004,0.038 0.018,-0.338 v 0.037 l -0.018,-0.338 0.004,0.038 -0.05,-0.328 0.008,0.037 -0.082,-0.317 0.011,0.035 -0.111,-0.304 0.014,0.034 -0.139,-0.289 0.017,0.032 -0.165,-0.272 0.02,0.03 -0.19,-0.255 0.022,0.028 -0.213,-0.235 0.025,0.025 -0.235,-0.213 0.028,0.023 -0.255,-0.191 0.03,0.02 -0.272,-0.165 0.032,0.017 -0.289,-0.139 0.033,0.014 -0.303,-0.111 0.035,0.011 -0.317,-0.081 0.037,0.007 -0.328,-0.05 0.037,0.004 -0.338,-0.017 h 0.038 l -0.338,0.017 0.037,-0.004 -0.328,0.05 0.037,-0.007 -0.317,0.081 0.035,-0.011 -0.303,0.111 0.033,-0.014 -0.289,0.139 0.032,-0.017 -0.272,0.165 0.029,-0.02 -0.254,0.191 0.028,-0.023 -0.235,0.213 0.025,-0.025 -0.213,0.235 0.022,-0.028 -0.19,0.255 0.02,-0.03 -0.166,0.272 0.018,-0.032 -0.139,0.289 0.014,-0.034 -0.111,0.304 0.011,-0.035 -0.082,0.317 0.008,-0.037 -0.05,0.328 0.003,-0.038 -0.017,0.338"
           style="fill:#000000;fill-opacity:1;fill-rule:nonzero;stroke:none"
           id="path2480" /></g><g
         id="g2482"><path
           d="m 542.732,198.451 v 19.838 h -0.75 v -19.838 h 0.75"
           style="fill:#000000;fill-opacity:1;fill-rule:nonzero;stroke:none"
           id="path2484" /></g><g
         id="g2486"><path
           d="m 532.436,198.076 h 19.843 v 0.75 h -19.843 z"
           style="fill:#000000;fill-opacity:1;fill-rule:nonzero;stroke:none"
           id="path2488" /></g><text
         style="font-variant:normal;font-weight:normal;font-stretch:normal;font-size:18px;font-family:'DejaVu Sans';-inkscape-font-specification:DejaVuSans;writing-mode:lr-tb;fill:#000000;fill-opacity:1;fill-rule:nonzero;stroke:none"
         id="text2492"
         x="499.84399"
         y="198.063"><tspan
           x="499.84399 512.14398 522.04401"
           y="198.063"
           sodipodi:role="line"
           id="tspan2490">Vcc</tspan></text><text
         style="font-variant:normal;font-weight:normal;font-stretch:normal;font-size:18px;font-family:'DejaVu Sans';-inkscape-font-specification:DejaVuSans;writing-mode:lr-tb;fill:#000000;fill-opacity:1;fill-rule:nonzero;stroke:none"
         id="text2496"
         x="555.45697"
         y="237.739"><tspan
           x="555.45697 565.15698 576.15698 587.20697 598.65698 605.65698 615.70697 627.15698"
           y="237.739"
           sodipodi:role="line"
           id="tspan2494">Load(L1)</tspan></text><g
         id="g2498"><path
           d="m 542.732,370.381 v 26.451 h -0.75 v -26.451 h 0.75"
           style="fill:#000000;fill-opacity:1;fill-rule:nonzero;stroke:none"
           id="path2500" /></g><g
         id="g2502"><path
           d="m 542.357,417.509 -10.528,-21.052 h 21.056 z m 9.586,-20.844 0.335,0.542 h -19.842 l 0.335,-0.542 9.921,19.838 h -0.67 l 9.921,-19.838"
           style="fill:#000000;fill-opacity:1;fill-rule:nonzero;stroke:none"
           id="path2504" /></g><g
         id="g2506"><path
           d="m 585.36,297.6 c -0.011,-1.785 1.47,-3.265 3.296,-3.265 1.827,0 3.307,1.48 3.307,3.307 0,1.826 -1.48,3.306 -3.307,3.306 -1.826,0 -3.307,-1.48 -3.296,-3.348"
           style="fill:#000000;fill-opacity:1;fill-rule:evenodd;stroke:none"
           id="path2508" /></g><g
         id="g2510"><path
           d="m 584.992,297.285 0.003,-0.038 0.051,-0.328 0.007,-0.037 0.082,-0.317 0.011,-0.036 0.111,-0.303 0.014,-0.034 0.139,-0.289 0.018,-0.032 0.165,-0.273 0.021,-0.03 0.19,-0.254 0.023,-0.028 0.213,-0.235 0.026,-0.025 0.234,-0.213 0.028,-0.023 0.255,-0.19 0.029,-0.021 0.273,-0.165 0.032,-0.018 0.289,-0.139 0.034,-0.014 0.304,-0.111 0.035,-0.011 0.317,-0.082 0.037,-0.007 0.329,-0.05 0.037,-0.004 0.338,-0.017 h 0.038 l 0.338,0.017 0.038,0.004 0.328,0.05 0.037,0.007 0.317,0.082 0.035,0.011 0.304,0.111 0.034,0.014 0.289,0.139 0.032,0.018 0.273,0.165 0.03,0.021 0.254,0.19 0.028,0.023 0.235,0.213 0.025,0.025 0.214,0.235 0.022,0.028 0.191,0.254 0.02,0.03 0.166,0.273 0.017,0.032 0.139,0.289 0.015,0.034 0.111,0.303 0.011,0.036 0.081,0.317 0.008,0.037 0.05,0.328 0.004,0.038 0.017,0.338 v 0.037 l -0.017,0.339 -0.004,0.037 -0.05,0.328 -0.008,0.037 -0.081,0.317 -0.011,0.036 -0.111,0.303 -0.015,0.034 -0.139,0.289 -0.017,0.032 -0.166,0.273 -0.02,0.03 -0.191,0.254 -0.022,0.028 -0.214,0.235 -0.025,0.025 -0.235,0.213 -0.028,0.023 -0.254,0.191 -0.03,0.02 -0.273,0.165 -0.032,0.018 -0.289,0.139 -0.034,0.014 -0.304,0.111 -0.035,0.011 -0.317,0.082 -0.037,0.007 -0.328,0.051 -0.038,0.003 -0.338,0.017 h -0.038 l -0.338,-0.017 -0.037,-0.003 -0.329,-0.051 -0.037,-0.007 -0.317,-0.082 -0.035,-0.011 -0.304,-0.111 -0.034,-0.014 -0.289,-0.139 -0.032,-0.018 -0.273,-0.165 -0.029,-0.02 -0.255,-0.191 -0.028,-0.023 -0.234,-0.213 -0.026,-0.025 -0.213,-0.235 -0.023,-0.028 -0.19,-0.254 -0.021,-0.03 -0.165,-0.273 -0.018,-0.032 -0.139,-0.289 -0.014,-0.034 -0.111,-0.303 -0.011,-0.036 -0.082,-0.317 -0.007,-0.037 -0.051,-0.328 -0.003,-0.037 -0.017,-0.339 v -0.037 z m 0.732,0.375 v -0.037 l 0.017,0.338 -0.004,-0.038 0.05,0.328 -0.008,-0.037 0.082,0.317 -0.011,-0.035 0.111,0.304 -0.014,-0.034 0.139,0.289 -0.017,-0.032 0.165,0.272 -0.02,-0.029 0.191,0.254 -0.023,-0.028 0.213,0.235 -0.025,-0.025 0.235,0.213 -0.028,-0.022 0.255,0.19 -0.03,-0.02 0.273,0.165 -0.032,-0.017 0.289,0.139 -0.034,-0.014 0.304,0.111 -0.036,-0.011 0.317,0.082 -0.037,-0.008 0.329,0.05 -0.038,-0.004 0.338,0.017 h -0.038 l 0.338,-0.017 -0.037,0.004 0.328,-0.05 -0.037,0.008 0.317,-0.082 -0.035,0.011 0.304,-0.111 -0.034,0.014 0.289,-0.139 -0.032,0.017 0.273,-0.165 -0.03,0.02 0.254,-0.19 -0.027,0.022 0.234,-0.213 -0.025,0.025 0.214,-0.235 -0.023,0.028 0.19,-0.254 -0.02,0.029 0.166,-0.272 -0.018,0.032 0.14,-0.289 -0.015,0.034 0.111,-0.304 -0.011,0.035 0.082,-0.317 -0.008,0.037 0.051,-0.328 -0.004,0.038 0.017,-0.338 v 0.037 l -0.017,-0.338 0.004,0.038 -0.051,-0.328 0.008,0.037 -0.082,-0.317 0.011,0.035 -0.111,-0.304 0.015,0.034 -0.14,-0.289 0.018,0.032 -0.166,-0.272 0.02,0.03 -0.19,-0.255 0.023,0.028 -0.214,-0.235 0.025,0.025 -0.234,-0.213 0.027,0.023 -0.254,-0.191 0.03,0.02 -0.273,-0.165 0.032,0.017 -0.289,-0.139 0.034,0.014 -0.304,-0.111 0.035,0.011 -0.317,-0.081 0.037,0.007 -0.328,-0.05 0.037,0.004 -0.338,-0.017 h 0.038 l -0.338,0.017 0.038,-0.004 -0.329,0.05 0.037,-0.007 -0.317,0.081 0.036,-0.011 -0.304,0.111 0.034,-0.014 -0.289,0.139 0.032,-0.017 -0.273,0.165 0.03,-0.02 -0.255,0.191 0.028,-0.023 -0.235,0.213 0.025,-0.025 -0.213,0.235 0.023,-0.028 -0.191,0.255 0.02,-0.03 -0.165,0.272 0.017,-0.032 -0.139,0.289 0.014,-0.034 -0.111,0.304 0.011,-0.035 -0.082,0.317 0.008,-0.037 -0.05,0.328 0.004,-0.038 -0.017,0.338"
           style="fill:#000000;fill-opacity:1;fill-rule:nonzero;stroke:none"
           id="path2512" /></g><g
         id="g2514"><path
           d="m 589.031,297.642 v 145.479 h -0.75 V 297.642 h 0.75"
           style="fill:#000000;fill-opacity:1;fill-rule:nonzero;stroke:none"
           id="path2516" /></g><g
         id="g2518"><path
           d="m 347.28,461.28 -29.76,-18.12 29.76,-18.24 v 36.36"
           style="fill:#ffcc99;fill-opacity:1;fill-rule:evenodd;stroke:none"
           id="path2520" /></g><g
         id="g2522"><path
           d="m 316.755,443.121 30.859,-18.853 v 37.707 z m 30.679,17.865 -0.57,0.32 v -36.37 l 0.57,0.32 -29.764,18.185 v -0.64 l 29.764,18.185"
           style="fill:#000000;fill-opacity:1;fill-rule:nonzero;stroke:none"
           id="path2524" /></g><g
         id="g2526"><path
           d="m 350.546,442.746 h 238.111 v 0.75 H 350.546 Z"
           style="fill:#000000;fill-opacity:1;fill-rule:nonzero;stroke:none"
           id="path2528" /></g><g
         id="g2530"><path
           d="m 248.04,297.6 c -0.014,-1.785 1.466,-3.265 3.293,-3.265 1.826,0 3.307,1.48 3.307,3.307 0,1.826 -1.481,3.306 -3.307,3.306 -1.827,0 -3.307,-1.48 -3.293,-3.348"
           style="fill:#000000;fill-opacity:1;fill-rule:evenodd;stroke:none"
           id="path2532" /></g><g
         id="g2534"><path
           d="m 247.668,297.285 0.004,-0.038 0.05,-0.328 0.008,-0.037 0.081,-0.317 0.011,-0.036 0.112,-0.303 0.014,-0.034 0.139,-0.289 0.018,-0.032 0.165,-0.273 0.02,-0.03 0.191,-0.254 0.023,-0.028 0.213,-0.235 0.025,-0.025 0.235,-0.213 0.028,-0.023 0.254,-0.19 0.03,-0.021 0.273,-0.165 0.032,-0.018 0.289,-0.139 0.034,-0.014 0.304,-0.111 0.035,-0.011 0.317,-0.082 0.037,-0.007 0.328,-0.05 0.038,-0.004 0.338,-0.017 h 0.038 l 0.338,0.017 0.038,0.004 0.328,0.05 0.037,0.007 0.317,0.082 0.035,0.011 0.304,0.111 0.034,0.014 0.289,0.139 0.032,0.018 0.273,0.165 0.03,0.021 0.254,0.19 0.028,0.023 0.235,0.213 0.025,0.025 0.213,0.235 0.023,0.028 0.191,0.254 0.02,0.03 0.165,0.273 0.018,0.032 0.139,0.289 0.014,0.034 0.111,0.303 0.012,0.036 0.081,0.317 0.008,0.037 0.05,0.328 0.003,0.038 0.018,0.338 v 0.037 l -0.018,0.339 -0.003,0.037 -0.05,0.328 -0.008,0.037 -0.081,0.317 -0.012,0.036 -0.111,0.303 -0.014,0.034 -0.139,0.289 -0.018,0.032 -0.165,0.273 -0.02,0.03 -0.191,0.254 -0.023,0.028 -0.213,0.235 -0.025,0.025 -0.235,0.213 -0.028,0.023 -0.254,0.191 -0.03,0.02 -0.273,0.165 -0.032,0.018 -0.289,0.139 -0.034,0.014 -0.304,0.111 -0.035,0.011 -0.317,0.082 -0.037,0.007 -0.328,0.051 -0.038,0.003 -0.338,0.017 h -0.038 l -0.338,-0.017 -0.038,-0.003 -0.328,-0.051 -0.037,-0.007 -0.317,-0.082 -0.035,-0.011 -0.304,-0.111 -0.034,-0.014 -0.289,-0.139 -0.032,-0.018 -0.273,-0.165 -0.03,-0.02 -0.254,-0.191 -0.028,-0.023 -0.235,-0.213 -0.025,-0.025 -0.213,-0.235 -0.023,-0.028 -0.191,-0.254 -0.02,-0.03 -0.165,-0.273 -0.018,-0.032 -0.139,-0.289 -0.014,-0.034 -0.112,-0.303 -0.011,-0.036 -0.081,-0.317 -0.008,-0.037 -0.05,-0.328 -0.004,-0.037 -0.017,-0.339 v -0.037 z m 0.732,0.375 v -0.037 l 0.017,0.338 -0.003,-0.038 0.05,0.328 -0.008,-0.037 0.082,0.317 -0.011,-0.035 0.111,0.304 -0.014,-0.034 0.139,0.289 -0.018,-0.032 0.166,0.272 -0.02,-0.029 0.19,0.254 -0.022,-0.028 0.213,0.235 -0.025,-0.025 0.235,0.213 -0.028,-0.022 0.254,0.19 -0.029,-0.02 0.272,0.165 -0.032,-0.017 0.289,0.139 -0.033,-0.014 0.303,0.111 -0.035,-0.011 0.317,0.082 -0.037,-0.008 0.328,0.05 -0.037,-0.004 0.338,0.017 h -0.038 l 0.338,-0.017 -0.037,0.004 0.328,-0.05 -0.037,0.008 0.317,-0.082 -0.035,0.011 0.303,-0.111 -0.034,0.014 0.29,-0.139 -0.032,0.017 0.272,-0.165 -0.03,0.02 0.255,-0.19 -0.028,0.022 0.235,-0.213 -0.025,0.025 0.213,-0.235 -0.022,0.028 0.19,-0.254 -0.02,0.029 0.165,-0.272 -0.017,0.032 0.139,-0.289 -0.014,0.034 0.111,-0.304 -0.011,0.035 0.082,-0.317 -0.008,0.037 0.05,-0.328 -0.004,0.038 0.018,-0.338 v 0.037 l -0.018,-0.338 0.004,0.038 -0.05,-0.328 0.008,0.037 -0.082,-0.317 0.011,0.035 -0.111,-0.304 0.014,0.034 -0.139,-0.289 0.017,0.032 -0.165,-0.272 0.02,0.03 -0.19,-0.255 0.022,0.028 -0.213,-0.235 0.025,0.025 -0.235,-0.213 0.028,0.023 -0.255,-0.191 0.03,0.02 -0.272,-0.165 0.032,0.017 -0.29,-0.139 0.034,0.014 -0.303,-0.111 0.035,0.011 -0.317,-0.081 0.037,0.007 -0.328,-0.05 0.037,0.004 -0.338,-0.017 h 0.038 l -0.338,0.017 0.037,-0.004 -0.328,0.05 0.037,-0.007 -0.317,0.081 0.035,-0.011 -0.303,0.111 0.033,-0.014 -0.289,0.139 0.032,-0.017 -0.272,0.165 0.029,-0.02 -0.254,0.191 0.028,-0.023 -0.235,0.213 0.025,-0.025 -0.213,0.235 0.022,-0.028 -0.19,0.255 0.02,-0.03 -0.166,0.272 0.018,-0.032 -0.139,0.289 0.014,-0.034 -0.111,0.304 0.011,-0.035 -0.082,0.317 0.008,-0.037 -0.05,0.328 0.003,-0.038 -0.017,0.338"
           style="fill:#000000;fill-opacity:1;fill-rule:nonzero;stroke:none"
           id="path2536" /></g><g
         id="g2538"><path
           d="m 251.333,231.139 h 72.756 v 0.75 h -72.756 z"
           style="fill:#000000;fill-opacity:1;fill-rule:nonzero;stroke:none"
           id="path2540" /></g><g
         id="g2542"><path
           d="m 251.708,231.514 v 112.417 h -0.75 V 231.514 h 0.75"
           style="fill:#000000;fill-opacity:1;fill-rule:nonzero;stroke:none"
           id="path2544" /></g><g
         id="g2546"><path
           d="m 251.333,442.746 h 66.142 v 0.75 h -66.142 z"
           style="fill:#000000;fill-opacity:1;fill-rule:nonzero;stroke:none"
           id="path2548" /></g><g
         id="g2550"><path
           d="m 251.542,344.242 -2.468,1.653 0.003,-0.002 -1.209,0.827 0.003,-0.003 -1.18,0.827 0.005,-0.003 -1.142,0.826 0.006,-0.004 -1.093,0.826 0.008,-0.006 -1.035,0.827 0.009,-0.008 -0.967,0.826 0.009,-0.007 -0.456,0.413 0.007,-0.006 -0.435,0.414 0.007,-0.007 -0.413,0.413 0.008,-0.008 -0.39,0.414 0.008,-0.009 -0.366,0.413 0.009,-0.01 -0.34,0.413 0.009,-0.011 -0.313,0.413 0.009,-0.014 -0.285,0.414 0.01,-0.016 -0.257,0.414 0.011,-0.018 -0.227,0.413 0.011,-0.02 -0.195,0.413 0.01,-0.023 -0.162,0.414 0.009,-0.026 -0.128,0.413 0.007,-0.029 -0.093,0.414 0.006,-0.032 -0.057,0.414 0.003,-0.034 -0.019,0.413 v -0.034 l 0.019,0.413 -0.003,-0.034 0.057,0.414 -0.006,-0.032 0.093,0.413 -0.007,-0.028 0.128,0.413 -0.009,-0.026 0.162,0.413 -0.01,-0.022 0.195,0.413 -0.011,-0.02 0.227,0.413 -0.011,-0.018 0.257,0.414 -0.01,-0.016 0.285,0.413 -0.009,-0.013 0.313,0.413 -0.009,-0.011 0.34,0.413 -0.009,-0.01 0.366,0.413 -0.008,-0.009 0.39,0.413 -0.008,-0.007 0.413,0.413 -0.007,-0.007 0.435,0.414 -0.007,-0.006 0.456,0.413 -0.009,-0.007 0.967,0.826 -0.009,-0.008 1.035,0.827 -0.008,-0.006 1.093,0.826 -0.006,-0.004 1.142,0.826 -0.005,-0.003 1.18,0.826 -0.003,-0.002 1.209,0.827 -0.003,-0.002 2.468,1.653 -0.418,0.623 -2.467,-1.653 -0.003,-0.002 -1.21,-0.827 -0.003,-0.002 -1.18,-0.827 -0.005,-0.003 -1.142,-0.827 -0.006,-0.004 -1.093,-0.827 -0.008,-0.006 -1.035,-0.827 -0.01,-0.008 -0.967,-0.826 -0.009,-0.008 -0.455,-0.413 -0.006,-0.006 -0.435,-0.413 -0.007,-0.007 -0.412,-0.413 -0.008,-0.008 -0.39,-0.413 -0.008,-0.009 -0.365,-0.413 -0.009,-0.011 -0.34,-0.413 -0.009,-0.011 -0.314,-0.414 -0.01,-0.013 -0.285,-0.414 -0.01,-0.015 -0.257,-0.413 -0.01,-0.018 -0.226,-0.413 -0.011,-0.02 -0.194,-0.414 -0.01,-0.023 -0.162,-0.413 -0.009,-0.026 -0.129,-0.413 -0.007,-0.029 -0.093,-0.413 -0.006,-0.031 -0.057,-0.414 -0.003,-0.033 -0.019,-0.414 v -0.034 l 0.019,-0.414 0.003,-0.033 0.057,-0.414 0.006,-0.031 0.093,-0.413 0.007,-0.029 0.129,-0.413 0.009,-0.026 0.162,-0.413 0.01,-0.023 0.194,-0.414 0.011,-0.02 0.226,-0.413 0.01,-0.018 0.257,-0.413 0.01,-0.016 0.285,-0.413 0.01,-0.013 0.314,-0.414 0.009,-0.011 0.34,-0.414 0.009,-0.01 0.365,-0.413 0.008,-0.009 0.39,-0.413 0.008,-0.008 0.412,-0.413 0.007,-0.007 0.435,-0.413 0.006,-0.006 0.455,-0.413 0.009,-0.008 0.967,-0.826 0.01,-0.008 1.035,-0.827 0.008,-0.006 1.093,-0.827 0.006,-0.004 1.142,-0.827 0.005,-0.003 1.18,-0.827 0.003,-0.002 1.21,-0.827 0.003,-0.002 2.467,-1.653 0.418,0.623"
           style="fill:#000000;fill-opacity:1;fill-rule:nonzero;stroke:none"
           id="path2552" /></g><g
         id="g2554"><path
           d="m 251.708,370.381 v 72.74 h -0.75 v -72.74 h 0.75"
           style="fill:#000000;fill-opacity:1;fill-rule:nonzero;stroke:none"
           id="path2556" /></g><g
         id="g2558"><path
           d="m 337.692,456.347 v 33.063 h -0.75 v -33.063 h 0.75"
           style="fill:#000000;fill-opacity:1;fill-rule:nonzero;stroke:none"
           id="path2560" /></g><g
         id="g2562"><path
           d="m 337.692,185.225 v 33.064 h -0.75 v -33.064 h 0.75"
           style="fill:#000000;fill-opacity:1;fill-rule:nonzero;stroke:none"
           id="path2564" /></g><g
         id="g2566"><path
           d="m 205.034,184.85 h 132.284 v 0.75 H 205.034 Z"
           style="fill:#000000;fill-opacity:1;fill-rule:nonzero;stroke:none"
           id="path2568" /></g><g
         id="g2570"><path
           d="m 205.034,489.035 h 132.284 v 0.75 H 205.034 Z"
           style="fill:#000000;fill-opacity:1;fill-rule:nonzero;stroke:none"
           id="path2572" /></g><text
         style="font-variant:normal;font-weight:normal;font-stretch:normal;font-size:18px;font-family:'DejaVu Sans';-inkscape-font-specification:DejaVuSans;writing-mode:lr-tb;fill:#000000;fill-opacity:1;fill-rule:nonzero;stroke:none"
         id="text2576"
         x="134.10051"
         y="191.45"><tspan
           sodipodi:role="line"
           id="tspan2574"
           x="134.10051"
           y="191.45">读锁存</tspan></text><text
         style="font-variant:normal;font-weight:normal;font-stretch:normal;font-size:18px;font-family:'DejaVu Sans';-inkscape-font-specification:DejaVuSans;writing-mode:lr-tb;fill:#000000;fill-opacity:1;fill-rule:nonzero;stroke:none"
         id="text2580"
         x="142.40051"
         y="489.022"><tspan
           sodipodi:role="line"
           id="tspan2578"
           x="142.40051"
           y="489.022">读引脚</tspan></text><text
         style="font-variant:normal;font-weight:normal;font-stretch:normal;font-size:18px;font-family:'DejaVu Sans';-inkscape-font-specification:DejaVuSans;writing-mode:lr-tb;fill:#000000;fill-opacity:1;fill-rule:nonzero;stroke:none"
         id="text2584"
         x="146.15051"
         y="363.38"><tspan
           sodipodi:role="line"
           id="tspan2582"
           x="146.15051"
           y="363.38">写锁存</tspan></text><text
         style="font-variant:normal;font-weight:normal;font-stretch:normal;font-size:18px;font-family:'DejaVu Sans';-inkscape-font-specification:DejaVuSans;writing-mode:lr-tb;fill:#000000;fill-opacity:1;fill-rule:nonzero;stroke:none"
         id="text2592"
         x="126.0005"
         y="297.25299"><tspan
           sodipodi:role="line"
           id="tspan2590"
           x="126.0005"
           y="297.25299">内部总线</tspan></text><text
         style="font-variant:normal;font-weight:normal;font-stretch:normal;font-size:18px;font-family:'DejaVu Sans';-inkscape-font-specification:DejaVuSans;writing-mode:lr-tb;fill:#000000;fill-opacity:1;fill-rule:nonzero;stroke:none"
         id="text2600"
         x="551.95697"
         y="356.76801"><tspan
           x="551.95697 567.50702"
           y="356.76801"
           sodipodi:role="line"
           id="tspan2598">M1</tspan></text><text
         style="font-variant:normal;font-weight:normal;font-stretch:normal;font-size:18px;font-family:'DejaVu Sans';-inkscape-font-specification:DejaVuSans;writing-mode:lr-tb;fill:#000000;fill-opacity:1;fill-rule:nonzero;stroke:none"
         id="text2604"
         x="700.755"
         y="290.64099"><tspan
           x="700.755 711.60498 723.05499 728.755 741.10498"
           y="290.64099"
           sodipodi:role="line"
           id="tspan2602">P1.X </tspan></text><text
         style="font-variant:normal;font-weight:normal;font-stretch:normal;font-size:18px;font-family:'DejaVu Sans';-inkscape-font-specification:DejaVuSans;writing-mode:lr-tb;fill:#000000;fill-opacity:1;fill-rule:nonzero;stroke:none"
         id="text2612"
         x="323.746"
         y="323.70401"><tspan
           x="323.746 334.59601 346.04599 351.746 364.09601"
           y="323.70401"
           sodipodi:role="line"
           id="tspan2610">P1.X </tspan></text><text
         style="font-variant:normal;font-weight:normal;font-stretch:normal;font-size:18px;font-family:'DejaVu Sans';-inkscape-font-specification:DejaVuSans;writing-mode:lr-tb;fill:#000000;fill-opacity:1;fill-rule:nonzero;stroke:none"
         id="text2616"
         x="366.19601"
         y="462.57101"><tspan
           x="366.19601 377.19601 389.54599"
           y="462.57101"
           sodipodi:role="line"
           id="tspan2614">TB1</tspan></text><text
         style="font-variant:normal;font-weight:normal;font-stretch:normal;font-size:18px;font-family:'DejaVu Sans';-inkscape-font-specification:DejaVuSans;writing-mode:lr-tb;fill:#000000;fill-opacity:1;fill-rule:nonzero;stroke:none"
         id="text2620"
         x="359.582"
         y="211.28799"><tspan
           x="359.582 370.582 382.93201"
           y="211.28799"
           sodipodi:role="line"
           id="tspan2618">TB2</tspan></text></g></g></svg>
